<svg xmlns="http://www.w3.org/2000/svg" xmlns:xlink="http://www.w3.org/1999/xlink" viewBox="0 0 953.56 969.32"><defs><style>.cls-1{isolation:isolate;}.cls-2{fill:#75c0c7;}.cls-3{fill:#f3977c;}.cls-4{fill:#126976;}.cls-5{fill:#146977;}.cls-6{fill:#2b2523;}.cls-10,.cls-11,.cls-15,.cls-17,.cls-18,.cls-19,.cls-20,.cls-21,.cls-22,.cls-23,.cls-24,.cls-25,.cls-26,.cls-27,.cls-28,.cls-29,.cls-30,.cls-31,.cls-32,.cls-33,.cls-34,.cls-7,.cls-8,.cls-9{fill:#fff;}.cls-12,.cls-7{opacity:0.2;}.cls-8{opacity:0.32;}.cls-9{opacity:0;}.cls-10,.cls-14{opacity:0.1;}.cls-11{opacity:0.4;}.cls-12,.cls-13,.cls-14,.cls-16{fill:#f3f3f3;}.cls-15{opacity:0.3;}.cls-16,.cls-28{opacity:0.15;}.cls-17{opacity:0.54;}.cls-18{opacity:0.8;}.cls-19{opacity:0.71;}.cls-20{opacity:0.43;}.cls-21{opacity:0.6;}.cls-22{opacity:0.5;}.cls-23{opacity:0.75;}.cls-24{opacity:0.7;}.cls-25{opacity:0.61;}.cls-27{opacity:0.66;}.cls-29{opacity:0.69;}.cls-30{opacity:0.51;}.cls-31{opacity:0.55;}.cls-32{opacity:0.65;}.cls-33{opacity:0.26;}.cls-34{opacity:0.62;}.cls-35{fill:#185a60;}.cls-36,.cls-37,.cls-38,.cls-39,.cls-40,.cls-41,.cls-42{mix-blend-mode:multiply;}.cls-36{fill:url(#Dégradé_sans_nom_338);}.cls-37{fill:url(#Dégradé_sans_nom_265);}.cls-38{fill:url(#Dégradé_sans_nom_265-2);}.cls-39{fill:url(#Dégradé_sans_nom_265-3);}.cls-40{fill:url(#Dégradé_sans_nom_265-4);}.cls-41{fill:url(#Dégradé_sans_nom_265-5);}.cls-42{fill:url(#Dégradé_sans_nom_421);}</style><radialGradient id="Dégradé_sans_nom_338" cx="550.57" cy="563.87" r="305.64" gradientTransform="translate(91.15 924.13) rotate(-57.53) scale(1 0.34)" gradientUnits="userSpaceOnUse"><stop offset="0" stop-color="#fff"/><stop offset="0.34" stop-color="#fdfdfd"/><stop offset="0.46" stop-color="#f6f6f6"/><stop offset="0.55" stop-color="#eaeaea"/><stop offset="0.62" stop-color="#d9d9d9"/><stop offset="0.68" stop-color="#c3c3c3"/><stop offset="0.74" stop-color="#a8a8a8"/><stop offset="0.79" stop-color="#878787"/><stop offset="0.83" stop-color="#616161"/><stop offset="0.88" stop-color="#363636"/><stop offset="0.91" stop-color="#080808"/><stop offset="0.92"/></radialGradient><linearGradient id="Dégradé_sans_nom_265" x1="533.13" y1="274.87" x2="661.45" y2="274.87" gradientUnits="userSpaceOnUse"><stop offset="0.08"/><stop offset="0.19" stop-color="#383838"/><stop offset="0.3" stop-color="#6c6c6c"/><stop offset="0.42" stop-color="#999"/><stop offset="0.54" stop-color="#bebebe"/><stop offset="0.65" stop-color="#dadada"/><stop offset="0.77" stop-color="#efefef"/><stop offset="0.89" stop-color="#fbfbfb"/><stop offset="1" stop-color="#fff"/></linearGradient><linearGradient id="Dégradé_sans_nom_265-2" x1="47.43" y1="534.76" x2="229.34" y2="286.2" xlink:href="#Dégradé_sans_nom_265"/><linearGradient id="Dégradé_sans_nom_265-3" x1="105.7" y1="578.09" x2="332.53" y2="206.06" xlink:href="#Dégradé_sans_nom_265"/><linearGradient id="Dégradé_sans_nom_265-4" x1="382.7" y1="296.17" x2="567.11" y2="296.17" xlink:href="#Dégradé_sans_nom_265"/><linearGradient id="Dégradé_sans_nom_265-5" x1="-129.3" y1="1295.06" x2="458.61" y2="491.73" xlink:href="#Dégradé_sans_nom_265"/><radialGradient id="Dégradé_sans_nom_421" cx="588.07" cy="801.4" r="347.19" gradientTransform="matrix(0.85, 0.52, -0.26, 0.42, 295.26, 154.32)" gradientUnits="userSpaceOnUse"><stop offset="0.26" stop-color="#fff"/><stop offset="0.43" stop-color="#fdfdfd"/><stop offset="0.53" stop-color="#f4f4f4"/><stop offset="0.62" stop-color="#e6e6e6"/><stop offset="0.69" stop-color="#d2d2d2"/><stop offset="0.75" stop-color="#b8b8b8"/><stop offset="0.82" stop-color="#999"/><stop offset="0.87" stop-color="#737373"/><stop offset="0.93" stop-color="#474747"/><stop offset="0.98" stop-color="#171717"/><stop offset="1"/></radialGradient></defs><title>Plan de travail 20</title><g class="cls-1"><g id="Calque_1" data-name="Calque 1"><g id="Assemblage"><g id="Corps"><path class="cls-2" d="M631,890.35c-40.59-38-56.48-58.85-56.48-58.85-28.71-28.29-95-128.58-95-128.58l-14.36-9.44-41.94,35.84-9,7.71-32.35,81.65c16.55,14,94.43,55.88,94.43,55.88S597.11,920,613.52,923.07l74.65,16.11Z"/><path id="Ventre" class="cls-3" d="M515.38,483.83c-23.57,19.86-41,43-52.84,68.93a206.62,206.62,0,0,0-14.11,42.94c-6.73,31.48-12.86,66.73-15.16,90.93L414.18,737l106.68-91.17,91.19-150-1.44-117.1c-5.51,13.11-16,27.68-29.27,42.6C562,443.18,537,465.61,515.38,483.83Z"/><path id="Aile_2" data-name="Aile 2" class="cls-4" d="M296.07,336,226.88,235.49,14.34,244.89C49.5,257.65,250.66,420.35,250.66,420.35l105.94,27,16.95-50,8.28-23.06Z"/><path id="Aile_1" data-name="Aile 1" class="cls-3" d="M536.06,351.71,424.68,194.32c-23.59-33.51-53-51.13-92.59-61.76L99.32,70.09c19,7.55,80.58,97.21,127.56,165.4,39.23,56.93,68.2,100,69.19,100.54L498.23,426.3l4.91-46.12,32.93,8.46V351.71Z"/><path class="cls-5" d="M635.88,187.59,649.14,171s-79.48,9.38-103.34,19.58c-24.89,10.64-24.76,10.91-80.93,60.53l71.19,100.59v12.48l-32.93,16-4.91,46.12L296.07,336,226.88,235.49,14.34,244.89C53.26,260,250.66,420.35,250.66,420.35l105.94,27-49.68,152.3,74.91,219L414.18,737l19.09-50.41c-.06,0,1.22-11.26,1.22-11.26-.12-.3,5.41-35.77,5.58-36.67.1-.54.36-1.9.52-2.86,2.36-14.39,7-35.77,8-40.8h0l.2-1,0-.13h0a195.16,195.16,0,0,1,50.85-95.37,199.15,199.15,0,0,1,15.71-14.71c22.49-18.33,55.12-49.57,66-62.5,13.13-15.66,23.74-29.54,29.27-42.6,5.59-13.22,9.81-41.87,9.81-41.87.16-1,.39-2.12.7-3.47l-14.62-96.1,14.34-37.73Z"/><path id="Visage" class="cls-3" d="M718.81,219.24,649.14,171l-13.26,16.58-15,12-14.34,37.73,14.62,96.1c-.34,1.48-.59,2.73-.75,3.77-1.67,11.32-4.59,28.12-9.76,41.57l124.22-104Z"/><polygon id="Bec" class="cls-6" points="734.83 274.68 718.81 219.24 940.42 209.9 734.83 274.68"/><path class="cls-5" d="M433.28,686.62c-.06,0,1.22-11.26,1.22-11.26"/></g><g id="Visage-2" data-name="Visage"><polygon class="cls-7" points="695.67 261.44 610.61 378.73 734.83 274.68 695.67 261.44"/><polygon class="cls-8" points="718.81 219.24 695.67 261.44 734.83 274.68 718.81 219.24"/><polygon class="cls-9" points="635.88 187.59 677.24 222.6 664.1 236.28 635.88 187.59"/><polygon class="cls-10" points="635.88 187.59 640.42 217.35 653.7 228.58 664.1 236.28 635.88 187.59"/><polyline class="cls-7" points="664.1 236.28 695.67 261.44 643.3 259.31 664.11 236.27"/><polygon class="cls-7" points="635.89 187.56 635.88 187.59 677.24 222.6 649.14 171.01 635.89 187.56"/><polygon class="cls-10" points="624.18 234.63 635.23 256.15 606.51 237.28 624.18 234.63"/><path class="cls-7" d="M625.4,284.7l-4.27,48.68c-6,37-10.52,45.34-10.52,45.34l42.56-91.9-9.87-27.51Z"/><polygon class="cls-11" points="677.24 222.6 649.14 171.01 718.81 219.24 677.24 222.6"/><polygon class="cls-9" points="643.3 259.31 653.17 286.82 695.67 261.44 643.3 259.31"/><polygon class="cls-10" points="610.61 378.72 653.17 286.82 695.67 261.44 610.61 378.72"/><polygon class="cls-8" points="635.88 187.59 620.85 199.55 631.09 208.87 640.42 217.35 635.88 187.59"/><polygon class="cls-11" points="631.09 208.87 620.85 199.55 606.51 237.28 640.42 217.35 631.09 208.87"/><polygon class="cls-9" points="695.67 261.44 705.26 243.95 677.24 222.6 695.67 261.44"/><polygon class="cls-7" points="718.81 219.24 677.24 222.6 705.26 243.95 718.81 219.24"/><polygon class="cls-10" points="695.67 261.44 677.24 222.6 664.11 236.27 695.67 261.44"/><polygon class="cls-10" points="621.13 333.38 606.51 237.28 625.4 284.7 621.13 333.38"/><polygon class="cls-10" points="653.17 286.82 625.4 284.7 643.3 259.31 653.17 286.82"/></g><g id="Oeil"><path class="cls-6" d="M653.7,228.58l-13.3-11.23c-1.05,5.22-2,11.56-3,19.46-.83,6.78-1.53,13.24-2.19,19.34l8.07,3.17,20.81-23Z"/><polygon class="cls-12" points="654.36 236.28 648.2 231.68 653.7 228.58 654.36 236.28"/><polygon class="cls-13" points="637.06 239.81 654.36 236.28 648.2 231.68 637.06 239.81"/><polygon class="cls-12" points="664.11 236.27 654.36 236.28 643.3 259.31 664.11 236.27"/><polygon class="cls-6" points="624.18 234.63 635.23 256.15 640.4 217.35 624.18 234.63"/><polygon class="cls-14" points="654.36 236.28 637.06 239.81 643.3 259.31 654.36 236.28"/><polygon class="cls-14" points="637.06 239.81 624.18 234.63 640.4 217.35 637.06 239.81"/></g><g id="Bec-2" data-name="Bec"><polygon class="cls-14" points="734.83 248.2 856.74 236.27 724.29 238.2 734.83 248.2"/><polygon class="cls-15" points="724.29 238.2 757.56 217.61 718.81 219.24 724.29 238.2"/><path class="cls-12" d="M734.83,248.2v26.48l74.31-23.41S768,263.49,734.83,248.2Z"/><polygon class="cls-16" points="724.29 238.2 940.42 209.9 856.74 236.27 724.29 238.2"/><polygon class="cls-17" points="724.29 238.2 810.86 215.37 883.52 217.35 724.29 238.2"/></g><g id="Ventre-2" data-name="Ventre"><polygon class="cls-7" points="520.86 645.86 445.44 696.45 414.18 737.03 520.86 645.86"/><path class="cls-7" d="M532.54,509.68l-32.87-11.15A215.05,215.05,0,0,1,517.51,482c8.19-6.83,16.68-14.26,26.56-23.28,15.76-14.38,30-29.21,37.27-37.35Z"/><polygon class="cls-9" points="448.82 593.9 445.44 696.45 485.23 647.04 448.82 593.9"/><polygon class="cls-18" points="581.34 509.68 612.05 495.82 610.61 378.73 581.34 509.68"/><path class="cls-19" d="M581.34,421.33s21.43-23.38,29.27-42.6l-29.27,131Z"/><polygon class="cls-20" points="581.34 509.68 532.54 509.68 581.34 421.33 581.34 509.68"/><polygon class="cls-11" points="445.44 696.45 485.12 647.04 520.86 645.86 445.44 696.45"/><polygon class="cls-21" points="551.84 576.11 560.27 581.03 520.86 645.86 551.84 576.11"/><polygon class="cls-11" points="551.84 576.11 532.54 509.68 485.12 647.04 551.84 576.11"/><polygon class="cls-22" points="520.86 645.86 551.84 576.11 485.12 647.04 520.86 645.86"/><polygon class="cls-10" points="448.82 593.9 532.54 509.68 485.12 647.04 448.82 593.9"/><path class="cls-9" d="M499.67,498.54s-3.18,3.1-8.22,8.94a192.87,192.87,0,0,0-28.9,45.28,204.63,204.63,0,0,0-13.73,41.15l83.72-84.22Z"/><polygon class="cls-23" points="612.05 495.82 551.84 576.11 581.34 509.68 612.05 495.82"/><polygon class="cls-24" points="551.84 576.11 560.27 581.03 612.05 495.82 551.84 576.11"/><polygon class="cls-21" points="581.34 509.68 551.84 576.11 532.54 509.68 581.34 509.68"/><path class="cls-9" d="M448.82,593.9s-6.93,32.87-9.6,49.69c0,0-2.27,13.45-3.8,24.83-.36,2.64-.69,5-1,7.16-.86,7-1.19,11-1.19,11L414.18,737l31.26-40.58Z"/></g><g id="Corps-2" data-name="Corps"><polygon class="cls-10" points="306.92 599.68 414.18 737.03 381.83 818.68 306.92 599.68"/><polygon class="cls-9" points="344.92 580.12 414.18 737.03 306.92 599.68 344.92 580.12"/><polygon class="cls-10" points="373.55 397.39 344.92 580.12 306.92 599.68 356.61 447.38 373.55 397.39"/><polygon class="cls-9" points="373.55 397.39 344.92 580.12 414.13 388.79 373.55 397.39"/><polygon class="cls-10" points="344.92 580.12 401.99 593.06 414.18 737.03 344.92 580.12"/><polygon class="cls-9" points="433.28 686.62 401.99 593.06 414.18 737.03 433.28 686.62"/><polygon class="cls-7" points="344.92 580.12 451.25 454.02 401.99 593.06 344.92 580.12"/><polygon class="cls-7" points="387.03 376.68 373.55 397.39 414.22 388.8 387.03 376.68"/><polygon class="cls-11" points="401.99 593.06 498.23 426.3 451.25 454.02 401.99 593.06"/><polygon class="cls-10" points="414.13 388.79 451.2 454.2 344.87 580.29 414.13 388.79"/><polygon class="cls-25" points="414.13 388.79 451.25 454.02 498.23 426.3 414.13 388.79"/><polygon class="cls-7" points="499.67 498.54 499.67 498.54 498.23 426.3 401.99 593.06 499.67 498.54"/><polygon class="cls-11" points="503.13 380.18 536.06 388.64 498.23 426.3 503.13 380.18"/><polygon class="cls-25" points="536.06 364.19 536.06 388.64 503.13 380.18 536.06 364.19"/><polygon class="cls-23" points="581.34 421.33 536.06 351.71 536.06 388.64 581.34 421.33"/><polygon class="cls-10" points="498.23 426.3 536.06 388.64 581.34 421.33 498.23 426.3"/><line class="cls-26" x1="581.34" y1="421.33" x2="498.23" y2="426.3"/><path class="cls-21" d="M619.63,187.59,649.14,171s-18.28,2.12-40,5.54c-25.86,4.07-40.38,7.17-50.47,9.83Z"/><polygon class="cls-10" points="536.06 351.71 536.06 225.34 621.13 333.38 536.06 351.71"/><polygon class="cls-11" points="574.51 219.24 536.06 225.34 621.13 333.38 574.51 219.24"/><polygon class="cls-10" points="558.7 186.38 536.06 225.34 574.51 219.24 558.7 186.38"/><path class="cls-11" d="M497.6,222.31l38.46,3,22.64-39a87.69,87.69,0,0,0-15.7,5.5c-5.72,2.54-13.05,5.49-18.24,9A265.44,265.44,0,0,0,497.6,222.31Z"/><polygon class="cls-10" points="464.85 251.11 503.13 246.96 515 284.7 500.63 301.63 464.85 251.11"/><polygon class="cls-15" points="497.6 222.31 503.13 246.96 536.06 225.34 497.6 222.31"/><polygon class="cls-9" points="515 284.7 536.06 225.34 503.13 246.96 515 284.7"/><path class="cls-15" d="M581.34,421.33c10-11.26,21.89-25.77,29.27-42.61,5.29-12.09,10.52-45.34,10.52-45.34l-85.06,18.33Z"/><polygon class="cls-11" points="515 284.7 536.06 225.34 536.06 351.71 515 284.7"/><polygon class="cls-9" points="500.63 301.63 515 284.7 536.06 351.71 500.63 301.63"/><polygon class="cls-11" points="558.7 186.38 619.63 187.59 574.51 219.24 558.7 186.38"/><path class="cls-11" d="M433.28,686.62s.33-4.05,1.2-11.11c.34-2.77.53-4.53.94-7.08,1.84-11.52,3.8-24.83,3.8-24.83,1.34-8.33,3.85-21.4,6-32.12,2-9.81,3.61-17.58,3.61-17.58L402,593.06Z"/><polygon class="cls-4" points="619.63 187.59 574.51 219.24 620.85 199.55 619.63 187.59"/><polygon class="cls-10" points="619.63 187.59 574.51 219.24 620.85 199.55 635.88 187.59 619.63 187.59"/><path class="cls-10" d="M499.67,498.54,402,593.06l46.82.84c.37-1.68,1.09-4.7,1.5-6.37a197.38,197.38,0,0,1,41.13-80.06C496.45,501.65,499.67,498.54,499.67,498.54Z"/><polygon class="cls-11" points="620.85 199.55 619.63 187.59 649.14 171.01 635.88 187.59 620.85 199.55"/><polygon class="cls-8" points="606.51 237.28 620.85 199.55 602.49 221.1 606.51 237.28"/><polygon class="cls-11" points="574.51 219.13 606.51 237.28 602.49 221.1 574.51 219.13"/></g><g id="Aile_2-2" data-name="Aile 2"><path class="cls-7" d="M14.34,244.89l94.91,39.24L251.6,399.78S123.13,306.86,52.3,264.51C35.66,254.56,21.79,247.86,14.34,244.89Z"/><polygon class="cls-10" points="356.61 447.38 373.55 397.39 251.6 399.78 356.61 447.38"/><polygon class="cls-15" points="266.21 376.85 251.6 399.78 373.55 397.39 266.21 376.85"/><polygon class="cls-10" points="14.34 244.89 109.25 284.13 78.24 247.42 14.34 244.89"/><polygon class="cls-27" points="226.88 235.49 78.24 247.42 14.34 244.89 226.88 235.49"/><polygon class="cls-9" points="109.25 284.13 251.6 399.78 266.21 376.85 109.25 284.13"/><polygon class="cls-10" points="296.07 336.03 109.25 284.13 78.24 247.42 296.07 336.03"/><polygon class="cls-11" points="373.55 397.39 296.07 336.03 387.03 376.68 373.55 397.39"/><polygon class="cls-10" points="266.21 376.85 373.55 397.39 296.07 336.03 266.21 376.85"/><polygon class="cls-10" points="78.24 247.42 224.07 274.68 296.07 336.03 78.24 247.42"/><polygon class="cls-23" points="226.88 235.49 224.07 274.68 78.24 247.42 226.88 235.49"/><polygon class="cls-25" points="254.18 275.16 224.07 274.68 226.88 235.49 254.18 275.16"/><polygon class="cls-7" points="296.07 336.03 266.21 376.85 109.25 284.13 296.07 336.03"/><polygon class="cls-11" points="224.07 274.68 254.18 275.16 296.07 336.03 224.07 274.68"/><polygon class="cls-9" points="250.66 420.35 251.6 399.78 356.61 447.38 250.66 420.35"/><path class="cls-10" d="M250.66,420.35l.93-20.58L89.31,294.44s76.23,57.77,101.61,78.46C205.7,385,250.66,420.35,250.66,420.35Z"/></g><g id="Aile_1-2" data-name="Aile 1"><polygon class="cls-22" points="267.33 263.17 434.21 340.97 296.07 336.03 267.33 263.17"/><polygon class="cls-8" points="503.13 380.18 434.21 340.97 369.78 197.88 503.13 380.18"/><polygon class="cls-22" points="296.07 336.03 434.21 340.97 503.13 380.18 296.07 336.03"/><path class="cls-8" d="M99.32,70.09a23.13,23.13,0,0,1,2.21,1c3.86,2.06,14.14,8.64,41.93,28.33C151,104.82,174.25,120,174.25,120l112.12,24.42Z"/><path class="cls-28" d="M267.33,263.17,174.25,120S151,104.82,143.46,99.47C121,83.72,104.84,72.29,99.32,70.09c0,0,4.06,1.34,11.63,9s19.14,20.65,37,44.77Z"/><path class="cls-28" d="M369.78,197.88,174.25,120l112.12,24.42S365.63,188.66,369.78,197.88Z"/><polygon class="cls-15" points="369.78 197.88 319.42 200.83 174.25 119.96 369.78 197.88"/><polygon class="cls-29" points="503.13 380.18 422.97 191.88 536.06 364.19 503.13 380.18"/><path class="cls-30" d="M423,191.88c13.83,19.37,23.36,33,113.09,159.83v12.48Z"/><polygon class="cls-22" points="422.97 191.88 369.78 197.88 503.13 380.18 422.97 191.88"/><polygon class="cls-28" points="384.2 290.21 369.78 197.88 434.21 340.97 384.2 290.21"/><path class="cls-15" d="M286.37,144.39,423,191.88l-53.19,6s-1.09-3-13.11-11.19C345.06,178.76,323.73,165.32,286.37,144.39Z"/><polygon class="cls-21" points="337.94 134.2 246.99 109.72 99.32 70.09 286.37 144.39 337.94 134.2"/><polygon class="cls-31" points="174.25 119.96 281.42 219.24 286.71 202.75 174.25 119.96"/><path class="cls-32" d="M378.92,151.48c-16.68-9.7-31-14.52-46.82-18.91-2.93-.81-8.08-2.21-14.41-3.91-25.54-6.89-70.7-18.93-70.7-18.93l91,24.47,85,57.69A145.36,145.36,0,0,0,378.92,151.48Z"/><polygon class="cls-29" points="337.94 134.2 286.37 144.39 422.97 191.88 337.94 134.2"/><polygon class="cls-23" points="384.2 290.21 267.33 263.17 434.21 340.97 384.2 290.21"/><polygon class="cls-15" points="384.2 290.21 349.36 251.94 267.33 263.17 384.2 290.21"/><polygon class="cls-9" points="369.78 197.88 349.36 251.94 384.2 290.21 369.78 197.88"/><polygon class="cls-11" points="349.36 251.94 281.42 219.24 267.33 263.17 349.36 251.94"/><polygon class="cls-15" points="369.78 197.88 349.36 251.94 319.42 200.83 369.78 197.88"/><polygon class="cls-15" points="349.36 251.94 281.42 219.24 286.71 202.75 349.36 251.94"/><path class="cls-9" d="M296.07,336l-28.74-72.86L151.55,128.69S205,202.56,227.25,236Z"/><polygon class="cls-28" points="319.42 200.83 349.36 251.94 286.71 202.75 319.42 200.83"/><polygon class="cls-9" points="281.42 219.24 174.25 119.96 267.33 263.17 281.42 219.24"/><polygon class="cls-9" points="319.42 200.83 286.71 202.75 174.25 119.96 319.42 200.83"/></g><g id="Queue"><polygon class="cls-9" points="423.21 729.32 479.52 702.91 465.15 693.47 423.21 729.32"/><polygon class="cls-9" points="574.51 831.5 606.52 870.63 574.51 870.63 574.51 831.5"/><polygon class="cls-7" points="574.51 870.63 476.26 874.56 567.56 903.59 574.51 870.63"/><polygon class="cls-24" points="606.52 870.63 631 909.96 574.51 870.63 606.52 870.63"/><polygon class="cls-11" points="567.56 903.59 631 909.96 574.51 870.63 567.56 903.59"/><polygon class="cls-28" points="567.56 903.59 613.52 923.07 688.17 939.18 631 909.96 567.56 903.59"/><polygon class="cls-11" points="630.99 890.35 606.52 870.63 631 909.96 640.74 914.77 688.17 939.18 630.99 890.35"/><path class="cls-7" d="M631,890.35h0c-29.68-27.82-46.49-46.88-53-54.57l28.51,34.85Z"/><path class="cls-7" d="M575.28,832.47c.57.71,1.47,1.81,2.74,3.31l-.05-.06C576.73,834.26,575.84,833.17,575.28,832.47Z"/><path class="cls-7" d="M574.51,831.5l.15.2-.15-.2Z"/><path class="cls-7" d="M575.15,832.31l-.34-.43Z"/><path class="cls-9" d="M613.52,923.07h0l-46-19.48-91.3-29S597.11,920,613.52,923.07Z"/><polygon class="cls-10" points="574.51 870.63 574.51 831.5 491.32 756 574.51 870.63"/><path class="cls-7" d="M479.52,702.91s66.28,100.3,95,128.58L491.32,756Z"/><polygon class="cls-33" points="423.21 729.32 491.32 756 479.52 702.91 423.21 729.32"/><polygon class="cls-11" points="509.87 818.68 491.32 756 574.51 870.63 509.87 818.68"/><polygon class="cls-9" points="509.87 818.68 429.54 789.16 574.51 870.63 509.87 818.68"/><polygon class="cls-28" points="476.26 874.56 429.54 789.16 574.51 870.63 476.26 874.56"/><polygon class="cls-22" points="491.32 756 469.7 780.73 429.54 789.16 509.87 818.68 491.32 756"/><path class="cls-9" d="M381.84,818.68l47.7-29.52,46.73,85.4S429,856.58,381.84,818.68Z"/><polygon class="cls-28" points="414.18 737.03 429.54 789.16 381.83 818.68 414.18 737.03"/><polygon class="cls-34" points="469.7 780.73 429.54 789.16 414.18 737.03 469.7 780.73"/><polygon class="cls-11" points="491.32 756 469.7 780.73 423.21 729.32 491.32 756"/><polygon class="cls-9" points="414.18 737.03 423.21 729.32 469.7 780.73 414.18 737.03"/><polygon id="Arrière" class="cls-35" points="479.52 702.91 479.86 680.9 465.15 693.47 479.52 702.91"/></g><path class="cls-36" d="M610.61,378.73s-6.21,16.91-29.27,42.6c-14.09,15.7-34.77,36.06-64.73,61.47C495.75,500,481.8,517.87,469.7,538.43c-17.52,29.77-23.27,64-29.78,102.13-3.68,21.54-6.65,46.06-6.65,46.06L414.18,737l106.68-91.17,91.19-150Z"/><path class="cls-37" d="M649.14,171l-13.26,16.58-15,12-14.34,37.73,14.62,96.1s-4.5,30.53-10.51,45.34l124.22-104-16-55.44Z"/><path class="cls-38" d="M386.93,376.85l-13.37,20.53-16.95,50-105.94-27s-129.8-104.67-176.49-137c-21.5-14.88-51.46-37.26-59.83-38.47l209.72,29.79,30.11.48L296.07,336Z"/><path class="cls-39" d="M498.23,426.3l37.84-37.66V351.71L423,191.88s-26.59-41.9-86.74-58.14S100.33,70.5,100.33,70.5s14.17,8.17,35.09,36.89c13.87,19.3,24,29.43,160.65,228.64Z"/><path class="cls-40" d="M649.14,171s-60.66,7.58-90.44,15.26c-31.22,8.05-48.46,24.35-94,64.85l71.33,100.6,45.28,69.62s20.59-22.11,29.27-42.6c6.1-14.73,10.51-45.62,10.51-45.62l-14.62-95.82,14.34-37.73,15-12Z"/><path class="cls-41" d="M381.84,374.59l-8.28,22.79-66.63,202.3,74.91,219L414.18,737l19.09-50.41s5.08-48.74,15.54-92.56c5.63-23.6,14.75-45.66,22.22-57.87a226.23,226.23,0,0,1,28.63-37.65l-1.44-72.24Z"/><path class="cls-42" d="M612.88,923.07l75.29,16.11L631,890.35h0c-40.59-38-56.48-58.85-56.48-58.85-28.71-28.29-95-128.58-95-128.58l-14.36-9.44-41.94,35.84-9,7.71-32.35,81.65c16.55,14,94.43,55.88,94.43,55.88s70.63,26.27,94.34,34.56C602.75,920.35,612.88,923.07,612.88,923.07Z"/></g></g></g></svg>