<?xml version="1.0" encoding="UTF-8" standalone="no"?>
<!-- Created with Inkscape (http://www.inkscape.org/) -->

<svg
   xmlns:dc="http://purl.org/dc/elements/1.1/"
   xmlns:cc="http://creativecommons.org/ns#"
   xmlns:rdf="http://www.w3.org/1999/02/22-rdf-syntax-ns#"
   xmlns:svg="http://www.w3.org/2000/svg"
   xmlns="http://www.w3.org/2000/svg"
   xmlns:sodipodi="http://sodipodi.sourceforge.net/DTD/sodipodi-0.dtd"
   xmlns:inkscape="http://www.inkscape.org/namespaces/inkscape"
   width="153.90788mm"
   height="153.90788mm"
   viewBox="0 0 545.34289 545.34289"
   id="svg2"
   version="1.1"
   inkscape:version="0.92.2 (5c3e80d, 2017-08-06)"
   sodipodi:docname="api.svg">
  <defs
     id="defs4">
    <linearGradient
       id="b"
       y2="1.85"
       x2="57.903"
       y1="1.85"
       x1="57.903"
       gradientTransform="scale(0)"
       gradientUnits="userSpaceOnUse">
      <stop
         id="stop4879"
         offset="0%"
         stop-color="#41873F" />
      <stop
         id="stop4881"
         offset="32.88%"
         stop-color="#418B3D" />
      <stop
         id="stop4883"
         offset="63.52%"
         stop-color="#419637" />
      <stop
         id="stop4885"
         offset="93.19%"
         stop-color="#3FA92D" />
      <stop
         id="stop4887"
         offset="100%"
         stop-color="#3FAE2A" />
    </linearGradient>
    <path
       d="m 57.903,1.85 a 5.957,5.957 0 0 0 -5.894,0 L 3.352,29.933 c -1.85,1.04 -2.89,3.005 -2.89,5.085 v 56.286 c 0,2.08 1.156,4.045 2.89,5.085 l 48.657,28.085 a 5.957,5.957 0 0 0 5.894,0 l 48.658,-28.085 c 1.849,-1.04 2.89,-3.005 2.89,-5.085 V 35.019 c 0,-2.08 -1.157,-4.045 -2.89,-5.085 z"
       id="a"
       inkscape:connector-curvature="0" />
    <linearGradient
       id="d"
       y2="-4.3421721"
       x2="102.80521"
       y1="22.882973"
       x1="59.834877"
       gradientTransform="scale(1.3193853,0.75792869)"
       gradientUnits="userSpaceOnUse">
      <stop
         id="stop4891"
         offset="13.76%"
         stop-color="#41873F" />
      <stop
         id="stop4893"
         offset="40.32%"
         stop-color="#54A044" />
      <stop
         id="stop4895"
         offset="71.36%"
         stop-color="#66B848" />
      <stop
         id="stop4897"
         offset="90.81%"
         stop-color="#6CC04A" />
    </linearGradient>
    <linearGradient
       id="e"
       y2="1.3961854"
       x2="60.624519"
       y1="1.3961854"
       x1="5.4630942"
       gradientTransform="scale(1.6318162,0.6128141)"
       gradientUnits="userSpaceOnUse">
      <stop
         id="stop4900"
         offset="9.192%"
         stop-color="#6CC04A" />
      <stop
         id="stop4902"
         offset="28.64%"
         stop-color="#66B848" />
      <stop
         id="stop4904"
         offset="59.68%"
         stop-color="#54A044" />
      <stop
         id="stop4906"
         offset="86.24%"
         stop-color="#41873F" />
    </linearGradient>
    <linearGradient
       id="f"
       y2="66.989662"
       x2="120.27905"
       y1="66.989662"
       x1="-1.4223322"
       gradientTransform="scale(0.92514783,1.0809083)"
       gradientUnits="userSpaceOnUse">
      <stop
         id="stop4909"
         offset="9.192%"
         stop-color="#6CC04A" />
      <stop
         id="stop4911"
         offset="28.64%"
         stop-color="#66B848" />
      <stop
         id="stop4913"
         offset="59.68%"
         stop-color="#54A044" />
      <stop
         id="stop4915"
         offset="86.24%"
         stop-color="#41873F" />
    </linearGradient>
    <linearGradient
       id="g"
       y2="68.39164"
       x2="169.56171"
       y1="68.39164"
       x1="117.94696"
       gradientTransform="scale(0.65492335,1.5268962)"
       gradientUnits="userSpaceOnUse">
      <stop
         id="stop4918"
         offset="9.192%"
         stop-color="#6CC04A" />
      <stop
         id="stop4920"
         offset="28.64%"
         stop-color="#66B848" />
      <stop
         id="stop4922"
         offset="59.68%"
         stop-color="#54A044" />
      <stop
         id="stop4924"
         offset="86.24%"
         stop-color="#41873F" />
    </linearGradient>
    <linearGradient
       id="h"
       y2="157.8152"
       x2="81.332504"
       y1="157.8152"
       x1="5.5872092"
       gradientTransform="scale(1.3178092,0.75883522)"
       gradientUnits="userSpaceOnUse">
      <stop
         id="stop4927"
         offset="9.192%"
         stop-color="#6CC04A" />
      <stop
         id="stop4929"
         offset="28.64%"
         stop-color="#66B848" />
      <stop
         id="stop4931"
         offset="59.68%"
         stop-color="#54A044" />
      <stop
         id="stop4933"
         offset="86.24%"
         stop-color="#41873F" />
    </linearGradient>
    <linearGradient
       id="i"
       y2="213.82344"
       x2="45.65274"
       y1="61.090031"
       x1="92.367607"
       gradientTransform="scale(1.3178092,0.75883522)"
       gradientUnits="userSpaceOnUse">
      <stop
         id="stop4936"
         offset="0%"
         stop-color="#41873F" />
      <stop
         id="stop4938"
         offset="32.88%"
         stop-color="#418B3D" />
      <stop
         id="stop4940"
         offset="63.52%"
         stop-color="#419637" />
      <stop
         id="stop4942"
         offset="93.19%"
         stop-color="#3FA92D" />
      <stop
         id="stop4944"
         offset="100%"
         stop-color="#3FAE2A" />
    </linearGradient>
  </defs>
  <sodipodi:namedview
     id="base"
     pagecolor="#201929"
     bordercolor="#666666"
     borderopacity="1.0"
     inkscape:pageopacity="1"
     inkscape:pageshadow="2"
     inkscape:zoom="0.39"
     inkscape:cx="533.99546"
     inkscape:cy="139.15439"
     inkscape:document-units="px"
     inkscape:current-layer="layer1"
     showgrid="false"
     inkscape:window-width="1440"
     inkscape:window-height="852"
     inkscape:window-x="0"
     inkscape:window-y="22"
     inkscape:window-maximized="0"
     fit-margin-top="0"
     fit-margin-left="0"
     fit-margin-right="0"
     fit-margin-bottom="0" />
  <metadata
     id="metadata7">
    <rdf:RDF>
      <cc:Work
         rdf:about="">
        <dc:format>image/svg+xml</dc:format>
        <dc:type
           rdf:resource="http://purl.org/dc/dcmitype/StillImage" />
        <dc:title></dc:title>
      </cc:Work>
    </rdf:RDF>
  </metadata>
  <g
     inkscape:label="Calque 1"
     inkscape:groupmode="layer"
     id="layer1"
     transform="translate(-83.778784,-348.82496)">
    <g
       id="g4110">
      <rect
         y="352.92496"
         x="87.878784"
         height="537.14288"
         width="537.14288"
         id="rect3336"
         style="fill:none;fill-opacity:1;stroke:#f5f6fa;stroke-width:8.19999981;stroke-linecap:round;stroke-miterlimit:4;stroke-dasharray:8.19999981, 32.79999924;stroke-dashoffset:0;stroke-opacity:1" />
      <g
         transform="matrix(0.40167355,0,0,0.40167355,26.722598,215.25241)"
         id="g4599">
        <path
           style="fill:#22a0c8;fill-rule:evenodd"
           inkscape:connector-curvature="0"
           d="m 1299.18,1370.6587 c 4.0787,-31.7043 -19.6463,-56.6053 -34.3597,-68.4292 -16.9563,19.6036 -19.5903,70.9808 7.0108,92.6119 -14.8464,13.1861 -46.1276,25.1378 -78.1592,25.1378 H 803.767 c -3.11296,33.4364 2.75643,64.2281 16.16344,90.5818 l 4.43531,8.115 a 150.42249,150.42249 0 0 0 9.19254,13.7928 c 16.03041,1.0297 30.81032,1.3835 44.33174,1.0855 h 0.005 c 26.57191,-0.5853 48.25355,-3.7249 64.68572,-9.4187 a 4.6854039,4.6854039 0 0 1 3.06773,8.8494 c -2.18706,0.7609 -4.46457,1.4686 -6.81659,2.1418 h -0.008 c -12.93874,3.6956 -26.81403,6.1807 -44.71488,7.2848 1.06426,0.019 -1.10683,0.1597 -1.11215,0.1597 -0.60929,0.04 -1.37555,0.1277 -1.9875,0.1596 -7.0454,0.3965 -14.64954,0.4789 -22.42396,0.4789 -8.50343,0 -16.8765,-0.1596 -26.23932,-0.6385 l -0.23946,0.1596 c 32.48653,36.5148 83.28365,58.4146 146.95832,58.4146 134.75666,0 249.05816,-59.7369 299.67436,-193.847 35.9081,3.685 70.4194,-5.4729 86.1172,-36.1183 -25.0048,-14.4287 -57.1614,-9.8284 -75.6768,-0.5215"
           id="path4530" />
        <path
           style="fill:#37b1d9;fill-rule:evenodd"
           inkscape:connector-curvature="0"
           d="m 1299.18,1370.6587 c 4.0787,-31.7043 -19.6463,-56.6053 -34.3597,-68.4292 -16.9563,19.6036 -19.5903,70.9808 7.0108,92.6119 -14.8464,13.1861 -46.1276,25.1378 -78.1592,25.1378 H 826.85611 c -1.59106,51.2068 17.41129,90.0763 51.03126,113.5751 h 0.008 c 26.57191,-0.5853 48.25355,-3.7249 64.68572,-9.4187 a 4.6854039,4.6854039 0 0 1 3.06773,8.8494 c -2.18706,0.7609 -4.46457,1.4686 -6.81659,2.1418 h -0.008 c -12.93874,3.6956 -28.006,6.4999 -45.90685,7.6041 -0.005,0 -0.43368,-0.4124 -0.439,-0.4124 45.86161,23.5255 112.35922,23.4403 188.60012,-5.8454 85.4867,-32.8431 165.0375,-95.4109 220.5413,-166.9744 -0.8355,0.3778 -1.6496,0.7636 -2.4398,1.16"
           id="path4532" />
        <path
           style="fill:#1b81a5;fill-rule:evenodd"
           inkscape:connector-curvature="0"
           d="m 804.49867,1460.6046 c 2.4212,17.9115 7.66268,34.6816 15.43177,49.9564 l 4.43531,8.115 a 150.14578,150.14578 0 0 0 9.19254,13.7928 c 16.03307,1.0297 30.81298,1.3835 44.33706,1.0855 26.57191,-0.5853 48.25355,-3.7249 64.68572,-9.4187 a 4.6854039,4.6854039 0 0 1 3.06773,8.8494 c -2.18706,0.7609 -4.46457,1.4686 -6.81659,2.1418 h -0.008 c -12.93874,3.6956 -27.92618,6.3403 -45.82703,7.4471 -0.61461,0.037 -1.68685,0.045 -2.30678,0.08 -7.04008,0.3937 -14.56706,0.6359 -22.34414,0.6359 -8.50077,0 -17.19577,-0.1623 -26.55328,-0.6386 32.48653,36.5148 83.59761,58.4944 147.27228,58.4944 115.36574,0 215.73614,-43.789 273.99104,-140.5409 H 804.49865"
           id="path4534" />
        <path
           style="fill:#1d91b4;fill-rule:evenodd"
           inkscape:connector-curvature="0"
           d="m 830.36551,1460.6046 c 6.8964,31.4489 23.46959,56.1371 47.52984,72.9497 26.57191,-0.5853 48.25355,-3.7249 64.68572,-9.4187 a 4.6854039,4.6854039 0 0 1 3.06773,8.8494 c -2.18706,0.7609 -4.46457,1.4686 -6.81659,2.1418 h -0.008 c -12.93874,3.6956 -28.24279,6.3403 -46.14631,7.4471 45.85896,23.5202 112.165,23.1823 188.4006,-6.1008 46.1197,-17.72 90.5073,-44.0976 130.3293,-75.8685 H 830.36549"
           id="path4536" />
        <path
           style="fill:#23a3c2;fill-rule:evenodd"
           inkscape:connector-curvature="0"
           d="m 856.68732,1357.7892 h 52.72875 v 52.7287 h -52.72875 z m 4.39273,4.3954 h 4.16126 v 43.9406 h -4.16126 z m 7.82231,0 h 4.32888 v 43.9406 h -4.32622 v -43.9406 z m 7.98727,0 h 4.32888 v 43.9406 h -4.32888 z m 7.99259,0 h 4.32622 v 43.9406 h -4.32622 z m 7.98993,0 h 4.32622 v 43.9406 h -4.32622 z m 7.98727,0 h 4.16392 v 43.9406 h -4.16392 z m 16.66631,-65.2339 h 52.73142 v 52.7261 h -52.73408 v -52.7261 z m 4.39539,4.3954 h 4.1586 v 43.938 h -4.1586 z m 7.82231,0 h 4.32622 v 43.938 h -4.32356 v -43.938 z m 7.98727,0 h 4.32622 v 43.938 h -4.32622 z m 7.98993,0 h 4.32622 v 43.938 h -4.32622 z m 7.98994,0 h 4.32887 v 43.938 h -4.32887 z m 7.98727,0 h 4.16657 v 43.938 h -4.16657 z"
           id="path4538" />
        <path
           style="fill:#34bbde;fill-rule:evenodd"
           inkscape:connector-curvature="0"
           d="m 917.52573,1357.7892 h 52.73142 v 52.7287 h -52.73408 v -52.7287 z m 4.39539,4.3954 h 4.1586 v 43.9406 h -4.1586 z m 7.82231,0 h 4.32622 v 43.9406 h -4.32356 v -43.9406 z m 7.98727,0 h 4.32622 v 43.9406 h -4.32622 z m 7.98993,0 h 4.32622 v 43.9406 h -4.32622 z m 7.98994,0 h 4.32887 v 43.9406 h -4.32887 z m 7.98727,0 h 4.16657 v 43.9406 h -4.16657 z"
           id="path4540" />
        <path
           style="fill:#23a3c2;fill-rule:evenodd"
           inkscape:connector-curvature="0"
           d="m 978.36681,1357.7892 h 52.72879 v 52.7287 h -52.72879 z m 4.39273,4.3954 h 4.15859 v 43.9406 h -4.15859 z m 7.82231,0 h 4.32621 v 43.9406 h -4.32621 z m 7.98993,0 h 4.32622 v 43.9406 h -4.32622 z m 7.98992,0 h 4.3262 v 43.9406 h -4.3262 z m 7.9873,0 h 4.3315 v 43.9406 h -4.3315 z m 7.9899,0 h 4.1613 v 43.9406 h -4.1613 z"
           id="path4542" />
        <path
           style="fill:#34bbde;fill-rule:evenodd"
           inkscape:connector-curvature="0"
           d="m 978.36681,1296.9507 h 52.72879 v 52.7261 h -52.72879 z m 4.39273,4.3954 h 4.15859 v 43.938 h -4.15859 z m 7.82231,0 h 4.32621 v 43.938 h -4.32621 z m 7.98993,0 h 4.32622 v 43.938 h -4.32622 z m 7.98992,0 h 4.3262 v 43.938 h -4.3262 z m 7.9873,0 h 4.3315 v 43.938 h -4.3315 z m 7.9899,0 h 4.1613 v 43.938 h -4.1613 z m 16.6663,56.4431 h 52.7288 v 52.7287 h -52.7288 z m 4.3954,4.3954 h 4.1586 v 43.9406 h -4.1586 z m 7.8223,0 h 4.3262 v 43.9406 h -4.3262 z m 7.9873,0 h 4.3262 v 43.9406 h -4.3262 z m 7.9899,0 h 4.3289 v 43.9406 h -4.3289 z m 7.99,0 h 4.3288 v 43.9406 h -4.3288 z m 7.9899,0 h 4.1612 v 43.9406 h -4.1612 z"
           id="path4544" />
        <path
           style="fill:#23a3c2;fill-rule:evenodd"
           inkscape:connector-curvature="0"
           d="m 1039.2052,1296.9507 h 52.7288 v 52.7261 h -52.7288 z m 4.3954,4.3954 h 4.1586 v 43.938 h -4.1586 z m 7.8223,0 h 4.3262 v 43.938 h -4.3262 z m 7.9873,0 h 4.3262 v 43.938 h -4.3262 z m 7.9899,0 h 4.3289 v 43.938 h -4.3289 z m 7.99,0 h 4.3288 v 43.938 h -4.3288 z m 7.9899,0 h 4.1612 v 43.938 h -4.1612 z"
           id="path4546" />
        <path
           style="fill:#34bbde;fill-rule:evenodd"
           inkscape:connector-curvature="0"
           d="m 1039.2052,1236.1097 h 52.7288 v 52.7341 h -52.7288 z m 4.3954,4.3927 h 4.1586 v 43.9433 h -4.1586 v -43.946 z m 7.8223,0 h 4.3262 v 43.9433 h -4.3262 v -43.946 z m 7.9873,0 h 4.3262 v 43.9433 h -4.3262 v -43.946 z m 7.9899,0 h 4.3289 v 43.9433 h -4.3289 v -43.946 z m 7.99,0 h 4.3288 v 43.9433 h -4.3288 v -43.946 z m 7.9899,0 h 4.1612 v 43.9433 h -4.1612 v -43.946 z"
           id="path4548" />
        <path
           style="fill:#23a3c2;fill-rule:evenodd"
           inkscape:connector-curvature="0"
           d="m 1100.0436,1357.7892 h 52.7288 v 52.7287 h -52.7288 z m 4.3901,4.3954 h 4.1639 v 43.9406 h -4.1612 v -43.9406 z m 7.8223,0 h 4.3289 v 43.9406 h -4.3262 v -43.9406 z m 7.9926,0 h 4.3289 v 43.9406 h -4.3289 z m 7.9873,0 h 4.3289 v 43.9406 h -4.3289 z m 7.9926,0 h 4.3262 v 43.9406 h -4.3262 z m 7.9872,0 h 4.1613 v 43.9406 h -4.1613 z"
           id="path4550" />
        <path
           style="fill:#d3ecec;fill-rule:evenodd"
           inkscape:connector-curvature="0"
           d="M 966.95528,1496.0072"
           id="path4552" />
        <path
           style="fill:#364548;fill-rule:evenodd"
           inkscape:connector-curvature="0"
           d="m 966.95528,1500.1339 c 1.33032,0 2.59945,0.2501 3.77014,0.7051 a 4.2517181,4.2517181 0 0 0 2.1232,7.9287 c 1.60969,0 3.00653,-0.8913 3.73023,-2.211"
           id="path4554" />
        <path
           style="fill:#bdd9d7;fill-rule:evenodd"
           inkscape:connector-curvature="0"
           d="m 1005.6225,1600.8315 c -36.0252,-17.0947 -55.79648,-40.3354 -66.79827,-65.7021 -13.38307,3.8181 -29.46669,6.2605 -48.15776,7.3088 -7.04008,0.3938 -14.44732,0.596 -22.21642,0.596 -8.96107,0 -18.40371,-0.266 -28.31729,-0.7902 33.03728,33.0187 73.6787,58.4385 148.93252,58.9015 5.55543,0 11.06832,-0.1064 16.55722,-0.314"
           id="path4556" />
        <path
           style="fill:#d3ecec;fill-rule:evenodd"
           inkscape:connector-curvature="0"
           d="m 952.20464,1558.5378 c -4.9834,-6.766 -9.8178,-15.2694 -13.37243,-23.4137 -13.38306,3.8234 -29.47201,6.2658 -48.16574,7.3168 12.8403,6.9682 31.20144,13.4256 61.54083,16.0969"
           id="path4558" />
      </g>
      <path
         id="path4948"
         d="m 192.31085,762.41202 c -1.8769,0 -3.62925,-0.50033 -5.25706,-1.37654 l -16.64732,-9.88808 c -2.50398,-1.37762 -1.25199,-1.878 -0.50036,-2.12819 3.37907,-1.12634 4.00506,-1.37762 7.50976,-3.37903 0.37581,-0.25127 0.87726,-0.12563 1.25199,0.1245 l 12.7679,7.6354 c 0.50037,0.25019 1.12635,0.25019 1.50109,0 L 242.881,724.48525 c 0.50036,-0.25019 0.75162,-0.75165 0.75162,-1.37653 v -57.70414 c 0,-0.62704 -0.25126,-1.12634 -0.75162,-1.37761 l -49.94415,-28.7892 c -0.50037,-0.25127 -1.12635,-0.25127 -1.50109,0 l -49.94415,28.7892 c -0.50037,0.25019 -0.75163,0.87621 -0.75163,1.37653 v 57.70414 c 0,0.5014 0.25126,1.12634 0.75163,1.37761 l 13.64407,7.88554 c 7.38522,3.75491 12.01627,-0.62597 12.01627,-5.00683 v -56.95357 c 0,-0.75057 0.62599,-1.50217 1.50217,-1.50217 h 6.38341 c 0.75162,0 1.50217,0.62602 1.50217,1.50217 v 56.95357 c 0,9.88808 -5.38269,15.64658 -14.77043,15.64658 -2.87871,0 -5.13142,0 -11.51591,-3.12999 l -13.14263,-7.50976 c -3.25452,-1.87686 -5.25705,-5.38266 -5.25705,-9.13751 v -57.70415 c 0,-3.75484 2.00253,-7.26065 5.25705,-9.13756 l 49.94306,-28.91484 c 3.12998,-1.75236 7.38631,-1.75236 10.5152,0 l 49.94306,28.91484 c 3.25453,1.87691 5.25814,5.38272 5.25814,9.13756 v 57.70415 c 0,3.75485 -2.00361,7.26065 -5.25814,9.13751 l -49.94306,28.91489 c -1.6278,0.75165 -3.5047,1.12634 -5.25705,1.12634 z m 15.39643,-39.67912 c -21.90438,0 -26.41089,-10.01373 -26.41089,-18.52534 0,-0.7516 0.62599,-1.50218 1.50217,-1.50218 h 6.50903 c 0.75055,0 1.37655,0.50039 1.37655,1.25199 1.0018,6.63361 3.88051,9.88814 17.14877,9.88814 10.5141,0 15.02169,-2.37838 15.02169,-8.01123 0,-3.25453 -1.25307,-5.63177 -17.65022,-7.25958 -13.64407,-1.37761 -22.15565,-4.38086 -22.15565,-15.2708 0,-10.13936 8.51266,-16.14804 22.78165,-16.14804 16.02133,0 23.90798,5.5083 24.90979,17.52349 0,0.37691 -0.12563,0.75166 -0.37581,1.12748 -0.25126,0.25013 -0.626,0.50032 -1.0018,0.50032 h -6.50905 c -0.62599,0 -1.25198,-0.50032 -1.37653,-1.12633 -1.50217,-6.88375 -5.38268,-9.13758 -15.6466,-9.13758 -11.51591,0 -12.89353,4.00619 -12.89353,7.00944 0,3.6303 1.6278,4.75665 17.14877,6.7592 15.39642,2.00363 22.65709,4.88234 22.65709,15.64658 -0.12564,11.01556 -9.13757,17.27444 -25.03543,17.27444 z"
         inkscape:connector-curvature="0"
         style="fill:#539e43;stroke-width:0.76927197" />
      <path
         style="fill:#aaaaaa;stroke-width:0.60594499"
         inkscape:connector-curvature="0"
         d="m 280.80776,621.41392 v -34.52735 h 43.10933 v -2.01962 h -43.10933 v -31.49884 h 45.83494 v -2.01901 h -47.85396 v 72.08383 h 48.25748 v -2.01901 h -46.23784 z m 85.10803,-49.87351 -17.8693,23.52338 -17.46638,-23.52278 h -2.62497 l 18.87946,25.03765 -20.6973,26.85367 h 2.42317 l 19.48479,-25.34063 19.58596,25.34063 h 2.52371 L 349.3577,596.57745 368.33772,571.5398 h -2.42255 z m 10.29745,69.66125 V 608.8957 h 0.20171 c 1.21189,4.71122 3.60119,8.49717 7.16833,11.35783 3.56722,2.86006 8.11005,4.2907 13.629,4.2907 3.56713,0 6.73075,-0.7235 9.49023,-2.17049 2.75947,-1.447 5.06453,-3.41571 6.91571,-5.90615 1.85056,-2.49043 3.26416,-5.38442 4.24038,-8.68258 0.9756,-3.29756 1.46397,-6.76417 1.46397,-10.39802 0,-3.9041 -0.5054,-7.50523 -1.51486,-10.80279 -1.00947,-3.29816 -2.47344,-6.15882 -4.3913,-8.58139 -1.91838,-2.42317 -4.24038,-4.30827 -6.96651,-5.65347 -2.72561,-1.34641 -5.80499,-2.01961 -9.23762,-2.01961 -2.62497,0 -5.06454,0.38719 -7.31924,1.16098 -2.2547,0.77441 -4.25678,1.86753 -6.00679,3.2812 a 22.222427,22.222427 0 0 0 -4.54335,4.99723 c -1.27849,1.91842 -2.2547,4.02165 -2.92795,6.31031 h -0.20171 v -14.53904 h -2.01903 v 69.66125 z m 20.99904,-18.57646 c -6.32609,0 -11.40818,-2.17049 -15.24442,-6.51148 -3.83624,-4.34099 -5.75462,-10.58405 -5.75462,-18.72795 0,-3.36541 0.47144,-6.56238 1.4136,-9.59089 0.94226,-3.02852 2.30507,-5.6874 4.08833,-7.97545 1.78396,-2.28865 3.98838,-4.10589 6.61274,-5.45168 2.62488,-1.34642 5.58677,-2.01962 8.88437,-2.01962 3.36533,0 6.31029,0.6732 8.83401,2.01962 2.5238,1.34579 4.61065,3.17999 6.2594,5.50198 1.64884,2.32197 2.89407,4.98086 3.73569,7.97544 0.841,2.99519 1.26155,6.17519 1.26155,9.5406 0,3.02913 -0.38659,6.04127 -1.161,9.03586 -0.77379,2.99519 -1.96866,5.6874 -3.58416,8.07725 -1.6148,2.38863 -3.68409,4.34038 -6.20851,5.85524 -2.52433,1.51426 -5.56985,2.27108 -9.13698,2.27108 z m 33.2154,0.80773 v -29.37864 c 0,-2.82674 0.40361,-5.58681 1.21189,-8.27842 0.80713,-2.69222 2.05236,-5.0651 3.73507,-7.11743 1.68271,-2.05294 3.81931,-3.66839 6.41094,-4.84635 2.59101,-1.17796 5.67039,-1.66574 9.23762,-1.46396 v -2.01901 c -3.09641,-0.0667 -5.80499,0.26904 -8.12699,1.00951 -2.32252,0.74046 -4.32461,1.74996 -6.00732,3.02912 -1.68271,1.27854 -3.02849,2.77582 -4.03796,4.49246 a 20.087077,20.087077 0 0 0 -2.22144,5.50199 h -0.20181 v -12.82179 h -2.01893 v 51.89312 h 2.01893 z m 23.11923,-25.5424 h 43.41177 c 0.13513,-3.5672 -0.21812,-6.99927 -1.05983,-10.29743 -0.841,-3.29816 -2.18748,-6.22609 -4.03804,-8.78318 -1.85109,-2.55769 -4.24038,-4.61063 -7.16832,-6.15882 -2.92786,-1.54819 -6.41085,-2.32198 -10.4489,-2.32198 -2.8946,0 -5.72128,0.60594 -8.48085,1.81783 -2.75938,1.21129 -5.18263,2.97762 -7.26887,5.2996 -2.08623,2.32198 -3.76894,5.16568 -5.04751,8.5317 -1.27857,3.36481 -1.91838,7.20106 -1.91838,11.50872 0,3.83624 0.43748,7.4204 1.31244,10.75189 0.87496,3.33148 2.22074,6.22609 4.03804,8.68258 1.81784,2.4565 4.15677,4.35796 7.01679,5.70376 2.86012,1.34642 6.30977,1.98568 10.34834,1.91842 5.92248,0 10.9034,-1.66634 14.94136,-4.99722 4.03866,-3.3321 6.42787,-8.02635 7.16841,-14.08398 h -2.01903 c -0.87496,5.72133 -3.11334,10.01203 -6.7139,12.87209 -3.6011,2.86066 -8.1269,4.29069 -13.57926,4.29069 -3.70164,0 -6.83139,-0.63927 -9.38906,-1.91781 -2.55714,-1.27854 -4.64399,-3.02913 -6.2594,-5.24991 -1.61489,-2.22139 -2.80984,-4.82938 -3.58355,-7.82457 -0.77441,-2.99457 -1.19495,-6.24244 -1.26225,-9.74238 z m 41.39275,-2.01901 h -41.39213 c 0.20119,-3.63445 0.87443,-6.89868 2.0184,-9.79267 1.14468,-2.8946 2.64191,-5.36808 4.49308,-7.42041 1.85056,-2.05294 4.00471,-3.6175 6.46121,-4.69486 2.4565,-1.07677 5.09841,-1.61545 7.92518,-1.61545 3.36542,0 6.32608,0.62291 8.88437,1.86813 2.55705,1.24521 4.69427,2.94489 6.41085,5.09842 1.71605,2.15352 3.01155,4.66093 3.8866,7.52099 0.87496,2.86067 1.31244,5.87282 1.31244,9.03585 z m 43.91708,-8.98495 h 2.01903 c 0,-5.78859 -1.68271,-9.99507 -5.04752,-12.62002 -3.36604,-2.62496 -7.94273,-3.93743 -13.73078,-3.93743 -3.23083,0 -5.95643,0.40416 -8.17779,1.21189 -2.22083,0.80712 -4.03805,1.85056 -5.45174,3.1291 -1.41299,1.27854 -2.42255,2.69221 -3.02849,4.24041 -0.60595,1.54818 -0.90892,3.02911 -0.90892,4.44217 0,2.82674 0.50478,5.08146 1.51486,6.76417 1.00956,1.68271 2.59101,2.99518 4.74454,3.93743 1.48099,0.6726 3.16309,1.27855 5.04813,1.81784 1.88452,0.53807 4.07201,1.11008 6.56238,1.71543 2.22083,0.53929 4.40832,1.07737 6.56246,1.61545 2.15345,0.53868 4.05498,1.26218 5.70374,2.17049 1.64937,0.90892 2.99515,2.06991 4.03857,3.48358 1.0429,1.41306 1.56461,3.26422 1.56461,5.55227 0,2.2214 -0.52118,4.10589 -1.56461,5.65347 a 12.612746,12.612746 0 0 1 -3.98768,3.78655 c -1.6155,0.97557 -3.41631,1.6821 -5.40138,2.11959 -1.98568,0.4375 -3.92047,0.65624 -5.80499,0.65624 -6.12489,0 -10.81978,-1.36277 -14.08394,-4.08831 -3.26426,-2.72615 -4.89607,-7.01684 -4.89607,-12.87269 h -2.01965 c 0,6.52905 1.76695,11.30753 5.30022,14.33666 3.53388,3.02851 8.7668,4.54276 15.69944,4.54276 2.22083,0 4.45859,-0.25268 6.71391,-0.75743 2.25408,-0.50475 4.27372,-1.32884 6.05698,-2.47346 a 13.68951,13.68951 0 0 0 4.34102,-4.44158 c 1.11072,-1.81784 1.6663,-4.03862 1.6663,-6.66358 0,-2.49043 -0.48837,-4.50944 -1.46397,-6.05762 -0.97612,-1.54759 -2.2547,-2.82674 -3.83677,-3.83625 -1.58154,-1.0095 -3.36489,-1.80026 -5.35057,-2.37228 a 312.71609,312.71609 0 0 0 -6.00733,-1.66634 1046.2701,1046.2701 0 0 0 -7.4204,-1.91782 c -2.11957,-0.53868 -4.08832,-1.17795 -5.90554,-1.91842 -1.74992,-0.74047 -3.14668,-1.80026 -4.1901,-3.18 -1.04343,-1.37974 -1.56452,-3.34845 -1.56452,-5.90615 0,-0.47082 0.13451,-1.31247 0.40352,-2.52375 0.2691,-1.21189 0.90892,-2.44015 1.91847,-3.68537 1.00947,-1.2446 2.55706,-2.3553 4.64391,-3.33148 2.08632,-0.97557 4.94696,-1.46396 8.5814,-1.46396 2.49046,0 4.76156,0.26964 6.81445,0.80773 2.05298,0.53868 3.81993,1.39669 5.30021,2.57465 1.481,1.17796 2.62497,2.67525 3.43272,4.49248 0.80766,1.81784 1.21189,4.03862 1.21189,6.66358 z m 46.74315,0 h 2.01902 c 0,-5.78859 -1.68209,-9.99507 -5.04751,-12.62002 -3.36542,-2.62496 -7.94211,-3.93743 -13.7307,-3.93743 -3.23029,0 -5.95643,0.40416 -8.17726,1.21189 -2.22135,0.80712 -4.03857,1.85056 -5.45165,3.1291 -1.41369,1.27854 -2.42316,2.69221 -3.02911,4.24041 -0.60594,1.54818 -0.9083,3.02911 -0.9083,4.44217 0,2.82674 0.50469,5.08146 1.51487,6.76417 1.00885,1.68271 2.59101,2.99518 4.74454,3.93743 1.4809,0.6726 3.16299,1.27855 5.04751,1.81784 1.88452,0.53807 4.07192,1.11008 6.56238,1.71543 2.22135,0.53929 4.40884,1.07737 6.56237,1.61545 2.15415,0.53868 4.05498,1.26218 5.70435,2.17049 1.64876,0.90892 2.99524,2.06991 4.03805,3.48358 1.04342,1.41306 1.56514,3.26422 1.56514,5.55227 0,2.2214 -0.52172,4.10589 -1.56514,5.65347 a 12.612746,12.612746 0 0 1 -3.98715,3.78655 c -1.61603,0.97557 -3.41632,1.6821 -5.402,2.11959 -1.98507,0.4375 -3.92047,0.65624 -5.8049,0.65624 -6.1249,0 -10.81916,-1.36277 -14.08342,-4.08831 -3.26478,-2.72615 -4.8966,-7.01684 -4.8966,-12.87269 h -2.01902 c 0,6.52905 1.76633,11.30753 5.30021,14.33666 3.53327,3.02851 8.76618,4.54276 15.69883,4.54276 2.22136,0 4.45912,-0.25268 6.71382,-0.75743 2.25417,-0.50475 4.27372,-1.32884 6.05768,-2.47346 a 13.68951,13.68951 0 0 0 4.34093,-4.44158 c 1.11073,-1.81784 1.66578,-4.03862 1.66578,-6.66358 0,-2.49043 -0.48775,-4.50944 -1.46397,-6.05762 -0.9756,-1.54759 -2.25408,-2.82674 -3.83624,-3.83625 -1.58154,-1.0095 -3.36542,-1.80026 -5.35049,-2.37228 a 312.71064,312.71064 0 0 0 -6.00732,-1.66634 1046.2549,1046.2549 0 0 0 -7.4204,-1.91782 c -2.12019,-0.53868 -4.08894,-1.17795 -5.90616,-1.91842 -1.75001,-0.74047 -3.14668,-1.80026 -4.18949,-3.18 -1.04342,-1.37974 -1.56513,-3.34845 -1.56513,-5.90615 0,-0.47082 0.1345,-1.31247 0.40414,-2.52375 0.26901,-1.21189 0.90891,-2.44015 1.91776,-3.68537 1.00956,-1.2446 2.55776,-2.3553 4.64399,-3.33148 2.08685,-0.97557 4.94697,-1.46396 8.58202,-1.46396 2.49046,0 4.76148,0.26964 6.81446,0.80773 2.05289,0.53868 3.81922,1.39669 5.30021,2.57465 1.4809,1.17796 2.62497,2.67525 3.43263,4.49248 0.80775,1.81784 1.21189,4.03862 1.21189,6.66358 z"
         id="path4080" />
    </g>
  </g>
</svg>
