<?xml version="1.0" encoding="UTF-8" standalone="no"?>
<!-- Created with Inkscape (http://www.inkscape.org/) -->

<svg
   xmlns:dc="http://purl.org/dc/elements/1.1/"
   xmlns:cc="http://creativecommons.org/ns#"
   xmlns:rdf="http://www.w3.org/1999/02/22-rdf-syntax-ns#"
   xmlns:svg="http://www.w3.org/2000/svg"
   xmlns="http://www.w3.org/2000/svg"
   xmlns:sodipodi="http://sodipodi.sourceforge.net/DTD/sodipodi-0.dtd"
   xmlns:inkscape="http://www.inkscape.org/namespaces/inkscape"
   width="800mm"
   height="600mm"
   viewBox="0 0 2834.6457 2125.9842"
   id="svg2"
   version="1.1"
   inkscape:version="0.92.2 (5c3e80d, 2017-08-06)"
   sodipodi:docname="bridge-overview-0.svg">
  <defs
     id="defs4">
    <marker
       inkscape:stockid="Arrow2Send"
       orient="auto"
       refY="0.0"
       refX="0.0"
       id="Arrow2Send"
       style="overflow:visible;"
       inkscape:isstock="true">
      <path
         id="path4571"
         style="fill-rule:evenodd;stroke-width:0.625;stroke-linejoin:round;stroke:#0099cc;stroke-opacity:1;fill:#0099cc;fill-opacity:1"
         d="M 8.7185878,4.0337352 L -2.2072895,0.016013256 L 8.7185884,-4.0017078 C 6.9730900,-1.6296469 6.9831476,1.6157441 8.7185878,4.0337352 z "
         transform="scale(0.3) rotate(180) translate(-2.3,0)" />
    </marker>
    <marker
       inkscape:stockid="Arrow1Send"
       orient="auto"
       refY="0.0"
       refX="0.0"
       id="Arrow1Send"
       style="overflow:visible;"
       inkscape:isstock="true">
      <path
         id="path4553"
         d="M 0.0,0.0 L 5.0,-5.0 L -12.5,0.0 L 5.0,5.0 L 0.0,0.0 z "
         style="fill-rule:evenodd;stroke:#000000;stroke-width:1pt;stroke-opacity:1;fill:#000000;fill-opacity:1"
         transform="scale(0.2) rotate(180) translate(6,0)" />
    </marker>
    <marker
       inkscape:stockid="Arrow1Mend"
       orient="auto"
       refY="0.0"
       refX="0.0"
       id="Arrow1Mend"
       style="overflow:visible;"
       inkscape:isstock="true">
      <path
         id="path4547"
         d="M 0.0,0.0 L 5.0,-5.0 L -12.5,0.0 L 5.0,5.0 L 0.0,0.0 z "
         style="fill-rule:evenodd;stroke:#000000;stroke-width:1pt;stroke-opacity:1;fill:#000000;fill-opacity:1"
         transform="scale(0.4) rotate(180) translate(10,0)" />
    </marker>
    <marker
       inkscape:stockid="Arrow1Lend"
       orient="auto"
       refY="0.0"
       refX="0.0"
       id="Arrow1Lend"
       style="overflow:visible;"
       inkscape:isstock="true">
      <path
         id="path4541"
         d="M 0.0,0.0 L 5.0,-5.0 L -12.5,0.0 L 5.0,5.0 L 0.0,0.0 z "
         style="fill-rule:evenodd;stroke:#000000;stroke-width:1pt;stroke-opacity:1;fill:#000000;fill-opacity:1"
         transform="scale(0.8) rotate(180) translate(12.5,0)" />
    </marker>
    <linearGradient
       id="b"
       y2="1.85"
       x2="57.903"
       y1="1.85"
       x1="57.903"
       gradientTransform="scale(0)"
       gradientUnits="userSpaceOnUse">
      <stop
         id="stop4879"
         offset="0%"
         stop-color="#41873F" />
      <stop
         id="stop4881"
         offset="32.88%"
         stop-color="#418B3D" />
      <stop
         id="stop4883"
         offset="63.52%"
         stop-color="#419637" />
      <stop
         id="stop4885"
         offset="93.19%"
         stop-color="#3FA92D" />
      <stop
         id="stop4887"
         offset="100%"
         stop-color="#3FAE2A" />
    </linearGradient>
    <path
       d="m 57.903,1.85 a 5.957,5.957 0 0 0 -5.894,0 L 3.352,29.933 c -1.85,1.04 -2.89,3.005 -2.89,5.085 v 56.286 c 0,2.08 1.156,4.045 2.89,5.085 l 48.657,28.085 a 5.957,5.957 0 0 0 5.894,0 l 48.658,-28.085 c 1.849,-1.04 2.89,-3.005 2.89,-5.085 V 35.019 c 0,-2.08 -1.157,-4.045 -2.89,-5.085 z"
       id="a"
       inkscape:connector-curvature="0" />
    <linearGradient
       id="d"
       y2="-4.3421721"
       x2="102.80521"
       y1="22.882973"
       x1="59.834877"
       gradientTransform="scale(1.3193853,0.75792869)"
       gradientUnits="userSpaceOnUse">
      <stop
         id="stop4891"
         offset="13.76%"
         stop-color="#41873F" />
      <stop
         id="stop4893"
         offset="40.32%"
         stop-color="#54A044" />
      <stop
         id="stop4895"
         offset="71.36%"
         stop-color="#66B848" />
      <stop
         id="stop4897"
         offset="90.81%"
         stop-color="#6CC04A" />
    </linearGradient>
    <linearGradient
       id="e"
       y2="1.3961854"
       x2="60.624519"
       y1="1.3961854"
       x1="5.4630942"
       gradientTransform="scale(1.6318162,0.6128141)"
       gradientUnits="userSpaceOnUse">
      <stop
         id="stop4900"
         offset="9.192%"
         stop-color="#6CC04A" />
      <stop
         id="stop4902"
         offset="28.64%"
         stop-color="#66B848" />
      <stop
         id="stop4904"
         offset="59.68%"
         stop-color="#54A044" />
      <stop
         id="stop4906"
         offset="86.24%"
         stop-color="#41873F" />
    </linearGradient>
    <linearGradient
       id="f"
       y2="66.989662"
       x2="120.27905"
       y1="66.989662"
       x1="-1.4223322"
       gradientTransform="scale(0.92514783,1.0809083)"
       gradientUnits="userSpaceOnUse">
      <stop
         id="stop4909"
         offset="9.192%"
         stop-color="#6CC04A" />
      <stop
         id="stop4911"
         offset="28.64%"
         stop-color="#66B848" />
      <stop
         id="stop4913"
         offset="59.68%"
         stop-color="#54A044" />
      <stop
         id="stop4915"
         offset="86.24%"
         stop-color="#41873F" />
    </linearGradient>
    <linearGradient
       id="g"
       y2="68.39164"
       x2="169.56171"
       y1="68.39164"
       x1="117.94696"
       gradientTransform="scale(0.65492335,1.5268962)"
       gradientUnits="userSpaceOnUse">
      <stop
         id="stop4918"
         offset="9.192%"
         stop-color="#6CC04A" />
      <stop
         id="stop4920"
         offset="28.64%"
         stop-color="#66B848" />
      <stop
         id="stop4922"
         offset="59.68%"
         stop-color="#54A044" />
      <stop
         id="stop4924"
         offset="86.24%"
         stop-color="#41873F" />
    </linearGradient>
    <linearGradient
       id="h"
       y2="157.8152"
       x2="81.332504"
       y1="157.8152"
       x1="5.5872092"
       gradientTransform="scale(1.3178092,0.75883522)"
       gradientUnits="userSpaceOnUse">
      <stop
         id="stop4927"
         offset="9.192%"
         stop-color="#6CC04A" />
      <stop
         id="stop4929"
         offset="28.64%"
         stop-color="#66B848" />
      <stop
         id="stop4931"
         offset="59.68%"
         stop-color="#54A044" />
      <stop
         id="stop4933"
         offset="86.24%"
         stop-color="#41873F" />
    </linearGradient>
    <linearGradient
       id="i"
       y2="213.82344"
       x2="45.65274"
       y1="61.090031"
       x1="92.367607"
       gradientTransform="scale(1.3178092,0.75883522)"
       gradientUnits="userSpaceOnUse">
      <stop
         id="stop4936"
         offset="0%"
         stop-color="#41873F" />
      <stop
         id="stop4938"
         offset="32.88%"
         stop-color="#418B3D" />
      <stop
         id="stop4940"
         offset="63.52%"
         stop-color="#419637" />
      <stop
         id="stop4942"
         offset="93.19%"
         stop-color="#3FA92D" />
      <stop
         id="stop4944"
         offset="100%"
         stop-color="#3FAE2A" />
    </linearGradient>
    <filter
       inkscape:collect="always"
       style="color-interpolation-filters:sRGB"
       id="filter6571-2"
       x="-0.0067350413"
       width="1.0134701"
       y="-0.054976832"
       height="1.1099536">
      <feGaussianBlur
         inkscape:collect="always"
         stdDeviation="0.66984558"
         id="feGaussianBlur6573-2" />
    </filter>
    <path
       inkscape:connector-curvature="0"
       id="a-2"
       d="m 57.903,1.85 a 5.957,5.957 0 0 0 -5.894,0 L 3.352,29.933 c -1.85,1.04 -2.89,3.005 -2.89,5.085 v 56.286 c 0,2.08 1.156,4.045 2.89,5.085 l 48.657,28.085 a 5.957,5.957 0 0 0 5.894,0 l 48.658,-28.085 c 1.849,-1.04 2.89,-3.005 2.89,-5.085 V 35.019 c 0,-2.08 -1.157,-4.045 -2.89,-5.085 z" />
    <linearGradient
       x1="93.627998"
       y1="24.229"
       gradientTransform="matrix(0.9973,-0.0732,0.0732,0.9973,-6.3155,6.9983)"
       x2="93.627998"
       gradientUnits="userSpaceOnUse"
       y2="122.5"
       id="SVGID_1_">
      <stop
         id="stop9977"
         offset="0"
         style="stop-color:#C56FB4" />
      <stop
         id="stop9979"
         offset="1"
         style="stop-color:#9C2683" />
    </linearGradient>
    <linearGradient
       x1="123.84"
       y1="53.573002"
       x2="123.84"
       gradientUnits="userSpaceOnUse"
       y2="151.85001"
       id="SVGID_2_"
       gradientTransform="matrix(0.9375,0,0,0.9375,1331.7613,575.3704)">
      <stop
         id="stop9986"
         offset="0"
         style="stop-color:#8BC53F" />
      <stop
         id="stop9988"
         offset="1"
         style="stop-color:#6C9C31" />
    </linearGradient>
    <clipPath
       id="clipPath3927">
      <path
         id="path3929"
         style="fill:none;stroke:#ffffff;stroke-width:103.87999725"
         d="m 1486.1,1425.8 a 1043.75,1033.8495 0 1 1 -2087.5,0 1043.75,1033.8495 0 1 1 2087.5,0 z"
         transform="matrix(0.89346,0,0,-0.90205,632.34,2313.7)"
         inkscape:connector-curvature="0" />
    </clipPath>
    <path
       inkscape:connector-curvature="0"
       id="a-3"
       d="m 57.903,1.85 a 5.957,5.957 0 0 0 -5.894,0 L 3.352,29.933 c -1.85,1.04 -2.89,3.005 -2.89,5.085 v 56.286 c 0,2.08 1.156,4.045 2.89,5.085 l 48.657,28.085 a 5.957,5.957 0 0 0 5.894,0 l 48.658,-28.085 c 1.849,-1.04 2.89,-3.005 2.89,-5.085 V 35.019 c 0,-2.08 -1.157,-4.045 -2.89,-5.085 z" />
    <path
       inkscape:connector-curvature="0"
       id="a-1"
       d="m 57.903,1.85 a 5.957,5.957 0 0 0 -5.894,0 L 3.352,29.933 c -1.85,1.04 -2.89,3.005 -2.89,5.085 v 56.286 c 0,2.08 1.156,4.045 2.89,5.085 l 48.657,28.085 a 5.957,5.957 0 0 0 5.894,0 l 48.658,-28.085 c 1.849,-1.04 2.89,-3.005 2.89,-5.085 V 35.019 c 0,-2.08 -1.157,-4.045 -2.89,-5.085 z" />
    <path
       inkscape:connector-curvature="0"
       id="a-8"
       d="m 57.903,1.85 a 5.957,5.957 0 0 0 -5.894,0 L 3.352,29.933 c -1.85,1.04 -2.89,3.005 -2.89,5.085 v 56.286 c 0,2.08 1.156,4.045 2.89,5.085 l 48.657,28.085 a 5.957,5.957 0 0 0 5.894,0 l 48.658,-28.085 c 1.849,-1.04 2.89,-3.005 2.89,-5.085 V 35.019 c 0,-2.08 -1.157,-4.045 -2.89,-5.085 z" />
    <path
       inkscape:connector-curvature="0"
       id="a-9"
       d="m 57.903,1.85 a 5.957,5.957 0 0 0 -5.894,0 L 3.352,29.933 c -1.85,1.04 -2.89,3.005 -2.89,5.085 v 56.286 c 0,2.08 1.156,4.045 2.89,5.085 l 48.657,28.085 a 5.957,5.957 0 0 0 5.894,0 l 48.658,-28.085 c 1.849,-1.04 2.89,-3.005 2.89,-5.085 V 35.019 c 0,-2.08 -1.157,-4.045 -2.89,-5.085 z" />
    <marker
       inkscape:stockid="Arrow2Send"
       orient="auto"
       refY="0"
       refX="0"
       id="Arrow2Send-7"
       style="overflow:visible"
       inkscape:isstock="true">
      <path
         inkscape:connector-curvature="0"
         id="path4571-5"
         style="fill:#0099cc;fill-opacity:1;fill-rule:evenodd;stroke:#0099cc;stroke-width:0.625;stroke-linejoin:round;stroke-opacity:1"
         d="M 8.7185878,4.0337352 -2.2072895,0.01601326 8.7185884,-4.0017078 c -1.7454984,2.3720609 -1.7354408,5.6174519 -6e-7,8.035443 z"
         transform="matrix(-0.3,0,0,-0.3,0.69,0)" />
    </marker>
    <clipPath
       id="clipPath3927-6">
      <path
         id="path3929-2"
         style="fill:none;stroke:#ffffff;stroke-width:103.87999725"
         d="m 1486.1,1425.8 a 1043.75,1033.8495 0 1 1 -2087.5,0 1043.75,1033.8495 0 1 1 2087.5,0 z"
         transform="matrix(0.89346,0,0,-0.90205,632.34,2313.7)"
         inkscape:connector-curvature="0" />
    </clipPath>
    <style
       id="style3505">.cls-1{fill:#fff;}.cls-2{fill:#fefefe;}.cls-3{fill:#8d729a;}.cls-4{fill:#816092;}.cls-5{fill:#a38ab1;}.cls-6{fill:#343434;}.cls-7{fill:#353535;}.cls-8{fill:#745a7f;}.cls-9{fill:#b6a9bc;}.cls-10{fill:#a88fb4;}.cls-11{fill:#373737;}.cls-12{fill:#3a3a3a;}.cls-13{fill:#a9a1ad;}.cls-14{fill:#684976;}.cls-15{fill:#7c5c8c;}.cls-16{fill:#af9cb8;}.cls-17{fill:#d8d3da;}.cls-18{fill:#3f3f3f;}.cls-19{fill:#e1e0e2;}.cls-20{fill:#513061;}.cls-21{fill:#461c5c;}.cls-22{fill:#cac2ce;}.cls-23{fill:#9984a3;}.cls-24{fill:#a99ab0;}.cls-25{fill:#745682;}.cls-26{fill:#fdfdfd;}.cls-27{fill:#7c6685;}.cls-28{fill:#60476b;}.cls-29{fill:#887d8c;}.cls-30{fill:#8e7f95;}.cls-31{fill:#90799b;}.cls-32{fill:#efebf1;}.cls-33{fill:#6f567b;}.cls-34{fill:#5a356c;}.cls-35{fill:#644573;}.cls-36{fill:#4b235e;}.cls-37{fill:#654a71;}</style>
    <path
       inkscape:connector-curvature="0"
       id="a-31"
       d="m 57.903,1.85 a 5.957,5.957 0 0 0 -5.894,0 L 3.352,29.933 c -1.85,1.04 -2.89,3.005 -2.89,5.085 v 56.286 c 0,2.08 1.156,4.045 2.89,5.085 l 48.657,28.085 a 5.957,5.957 0 0 0 5.894,0 l 48.658,-28.085 c 1.849,-1.04 2.89,-3.005 2.89,-5.085 V 35.019 c 0,-2.08 -1.157,-4.045 -2.89,-5.085 z" />
    <path
       d="m 57.903,1.85 a 5.957,5.957 0 0 0 -5.894,0 L 3.352,29.933 c -1.85,1.04 -2.89,3.005 -2.89,5.085 v 56.286 c 0,2.08 1.156,4.045 2.89,5.085 l 48.657,28.085 a 5.957,5.957 0 0 0 5.894,0 l 48.658,-28.085 c 1.849,-1.04 2.89,-3.005 2.89,-5.085 V 35.019 c 0,-2.08 -1.157,-4.045 -2.89,-5.085 z"
       id="a-8-9"
       inkscape:connector-curvature="0" />
    <path
       inkscape:connector-curvature="0"
       id="a-38"
       d="m 57.903,1.85 a 5.957,5.957 0 0 0 -5.894,0 L 3.352,29.933 c -1.85,1.04 -2.89,3.005 -2.89,5.085 v 56.286 c 0,2.08 1.156,4.045 2.89,5.085 l 48.657,28.085 a 5.957,5.957 0 0 0 5.894,0 l 48.658,-28.085 c 1.849,-1.04 2.89,-3.005 2.89,-5.085 V 35.019 c 0,-2.08 -1.157,-4.045 -2.89,-5.085 z" />
    <path
       d="m 57.903,1.85 a 5.957,5.957 0 0 0 -5.894,0 L 3.352,29.933 c -1.85,1.04 -2.89,3.005 -2.89,5.085 v 56.286 c 0,2.08 1.156,4.045 2.89,5.085 l 48.657,28.085 a 5.957,5.957 0 0 0 5.894,0 l 48.658,-28.085 c 1.849,-1.04 2.89,-3.005 2.89,-5.085 V 35.019 c 0,-2.08 -1.157,-4.045 -2.89,-5.085 z"
       id="a-8-0"
       inkscape:connector-curvature="0" />
  </defs>
  <sodipodi:namedview
     id="base"
     pagecolor="#201929"
     bordercolor="#666666"
     borderopacity="1.0"
     inkscape:pageopacity="1"
     inkscape:pageshadow="2"
     inkscape:zoom="0.24702681"
     inkscape:cx="1779.5939"
     inkscape:cy="917.24666"
     inkscape:document-units="px"
     inkscape:current-layer="layer1"
     showgrid="false"
     inkscape:window-width="1440"
     inkscape:window-height="852"
     inkscape:window-x="0"
     inkscape:window-y="23"
     inkscape:window-maximized="0"
     fit-margin-top="0"
     fit-margin-left="0"
     fit-margin-right="0"
     fit-margin-bottom="0" />
  <metadata
     id="metadata7">
    <rdf:RDF>
      <cc:Work
         rdf:about="">
        <dc:format>image/svg+xml</dc:format>
        <dc:type
           rdf:resource="http://purl.org/dc/dcmitype/StillImage" />
        <dc:title></dc:title>
      </cc:Work>
    </rdf:RDF>
  </metadata>
  <g
     inkscape:label="Calque 1"
     inkscape:groupmode="layer"
     id="layer1"
     transform="translate(-697.77785,1040.6379)">
    <text
       xml:space="preserve"
       style="font-style:normal;font-variant:normal;font-weight:bold;font-stretch:normal;font-size:80px;line-height:125%;font-family:sans-serif;-inkscape-font-specification:'sans-serif, Bold';font-variant-ligatures:normal;font-variant-caps:normal;font-variant-numeric:normal;font-feature-settings:normal;text-align:start;letter-spacing:0px;word-spacing:0px;writing-mode:lr-tb;text-anchor:start;fill:#f5f6fd;fill-opacity:0.87843137;stroke:none;stroke-width:0.9375px;stroke-linecap:butt;stroke-linejoin:miter;stroke-opacity:1;filter:url(#filter6571-2)"
       x="892.44183"
       y="61.003471"
       id="text6569-6"
       transform="matrix(1.9091409,0,0,1.9091409,-252.04976,-947.52606)"><tspan
         sodipodi:role="line"
         id="tspan6567-6"
         x="892.44183"
         y="61.003471"
         style="font-style:normal;font-variant:normal;font-weight:bold;font-stretch:normal;font-size:80px;font-family:sans-serif;-inkscape-font-specification:'sans-serif, Bold';font-variant-ligatures:normal;font-variant-caps:normal;font-variant-numeric:normal;font-feature-settings:normal;text-align:start;writing-mode:lr-tb;text-anchor:start;fill:#f5f6fd;fill-opacity:0.87843137;stroke-width:0.9375px">Bridge overview</tspan></text>
    <text
       xml:space="preserve"
       style="font-style:normal;font-weight:normal;font-size:37.5px;line-height:125%;font-family:sans-serif;letter-spacing:0px;word-spacing:0px;fill:#000000;fill-opacity:1;stroke:none;stroke-width:0.9375px;stroke-linecap:butt;stroke-linejoin:miter;stroke-opacity:1"
       x="1512.5419"
       y="557.45923"
       id="text1704"><tspan
         sodipodi:role="line"
         id="tspan1702"
         x="1512.5419"
         y="591.67163"
         style="stroke-width:0.9375px" /></text>
    <rect
       style="opacity:1;fill:none;fill-opacity:1;stroke:#0099cc;stroke-width:13.55508327;stroke-linecap:round;stroke-linejoin:round;stroke-miterlimit:4;stroke-dasharray:13.55508365, 27.11016731;stroke-dashoffset:0;stroke-opacity:0.44705882"
       id="rect1998-0"
       width="2585.5273"
       height="1692.0573"
       x="859.23248"
       y="-661.67017" />
    <g
       id="g11332"
       transform="matrix(0.86324944,0,0,0.86324944,770.83574,-770.88244)">
      <path
         id="path11315"
         d="m 82.085,244.934 c -5.946,0 -11.561,-2.642 -15.36,-7.432 L 8.92,165.657 C 5.121,160.867 3.635,154.757 5.121,148.81 L 25.766,59.128 C 27.087,53.182 31.051,48.392 36.502,45.75 L 120.073,5.78 c 2.643,-1.32 5.616,-1.981 8.589,-1.981 2.973,0 5.945,0.66 8.588,1.982 l 83.572,39.804 c 5.45,2.642 9.414,7.432 10.735,13.378 l 20.645,89.682 c 1.322,5.946 0,12.057 -3.798,16.847 l -57.807,71.845 c -3.799,4.624 -9.414,7.432 -15.36,7.432 l -93.15,0.165 z"
         inkscape:connector-curvature="0"
         style="fill:#326de6" />
      <path
         id="path11317"
         d="m 128.495,7.928 c 2.313,0 4.625,0.495 6.772,1.486 l 83.572,39.804 c 4.294,2.147 7.597,6.111 8.588,10.736 l 20.645,89.682 c 1.156,4.79 0,9.745 -3.138,13.543 l -57.806,71.846 c -2.973,3.798 -7.598,5.945 -12.387,5.945 H 82.085 c -4.79,0 -9.414,-2.147 -12.387,-5.945 L 11.892,163.179 C 8.919,159.381 7.762,154.426 8.754,149.636 L 29.399,59.954 c 1.156,-4.79 4.294,-8.754 8.588,-10.736 L 121.56,9.25 c 2.147,-0.826 4.624,-1.321 6.936,-1.321 z m 0,-7.763 c -3.468,0 -6.936,0.826 -10.24,2.312 l -83.571,39.97 c -6.607,3.138 -11.231,8.918 -12.883,16.02 L 1.156,148.15 c -1.651,7.102 0,14.369 4.625,20.15 l 57.806,71.845 c 4.46,5.615 11.231,8.753 18.333,8.753 h 92.655 c 7.102,0 13.874,-3.138 18.333,-8.753 l 57.807,-71.846 c 4.624,-5.615 6.276,-13.047 4.624,-20.15 L 234.694,58.467 c -1.651,-7.102 -6.276,-12.882 -12.882,-16.02 L 138.57,2.476 C 135.432,0.991 131.964,0.165 128.495,0.165 Z"
         inkscape:connector-curvature="0"
         style="fill:#ffffff" />
      <path
         id="path11319"
         d="m 212.232,142.534 c -0.165,0 -0.165,0 0,0 h -0.165 c -0.165,0 -0.33,0 -0.33,-0.165 -0.33,0 -0.66,-0.165 -0.991,-0.165 -1.156,-0.165 -2.147,-0.33 -3.138,-0.33 -0.496,0 -0.991,0 -1.652,-0.166 h -0.165 c -3.468,-0.33 -6.276,-0.66 -8.919,-1.486 -1.156,-0.496 -1.486,-1.156 -1.817,-1.817 0,-0.165 -0.165,-0.165 -0.165,-0.33 l -2.147,-0.66 a 65.33,65.33 0 0 0 -1.156,-23.289 68.054,68.054 0 0 0 -9.249,-21.636 l 1.652,-1.486 v -0.33 c 0,-0.826 0.165,-1.652 0.825,-2.478 1.982,-1.817 4.46,-3.303 7.433,-5.12 0.495,-0.33 0.99,-0.495 1.486,-0.826 0.991,-0.495 1.817,-0.99 2.808,-1.651 0.165,-0.165 0.495,-0.33 0.826,-0.66 0.165,-0.166 0.33,-0.166 0.33,-0.331 2.312,-1.982 2.808,-5.285 1.156,-7.433 -0.826,-1.156 -2.312,-1.816 -3.799,-1.816 -1.32,0 -2.477,0.495 -3.633,1.321 l -0.33,0.33 c -0.33,0.165 -0.496,0.496 -0.826,0.661 -0.826,0.826 -1.487,1.486 -2.147,2.312 -0.33,0.33 -0.66,0.826 -1.156,1.156 -2.313,2.478 -4.46,4.46 -6.607,5.946 -0.495,0.33 -0.99,0.496 -1.486,0.496 -0.33,0 -0.661,0 -0.991,-0.166 h -0.33 l -1.983,1.322 c -2.147,-2.312 -4.459,-4.294 -6.771,-6.276 A 65.958,65.958 0 0 0 134.276,63.752 l -0.165,-2.147 -0.33,-0.33 c -0.496,-0.496 -1.156,-0.991 -1.322,-2.147 -0.165,-2.643 0.166,-5.616 0.496,-8.919 v -0.165 c 0,-0.496 0.165,-1.156 0.33,-1.652 0.165,-0.99 0.33,-1.982 0.496,-3.138 v -1.486 c 0,-2.973 -2.313,-5.45 -5.12,-5.45 -1.322,0 -2.643,0.66 -3.634,1.651 -0.99,0.991 -1.486,2.312 -1.486,3.799 v 1.321 c 0,1.156 0.165,2.147 0.495,3.138 0.165,0.496 0.165,0.991 0.33,1.652 v 0.165 c 0.33,3.303 0.826,6.276 0.496,8.919 -0.165,1.156 -0.826,1.651 -1.321,2.147 l -0.33,0.33 -0.166,2.147 c -2.973,0.33 -5.946,0.66 -8.919,1.321 -12.717,2.808 -23.948,9.25 -32.701,18.498 L 79.773,82.25 h -0.33 c -0.33,0 -0.661,0.165 -0.991,0.165 -0.496,0 -0.991,-0.165 -1.487,-0.495 -2.147,-1.486 -4.294,-3.634 -6.606,-6.111 -0.33,-0.33 -0.66,-0.826 -1.156,-1.156 C 68.542,73.827 67.881,73.166 67.055,72.341 66.89,72.175 66.56,72.011 66.23,71.68 66.065,71.515 65.9,71.515 65.9,71.35 a 5.772,5.772 0 0 0 -3.634,-1.322 c -1.487,0 -2.973,0.661 -3.799,1.817 -1.652,2.147 -1.156,5.45 1.156,7.432 0.165,0 0.165,0.166 0.33,0.166 0.33,0.165 0.496,0.495 0.826,0.66 0.991,0.66 1.817,1.156 2.808,1.652 0.496,0.165 0.991,0.495 1.487,0.826 2.972,1.816 5.45,3.303 7.432,5.12 0.826,0.825 0.826,1.651 0.826,2.477 v 0.33 l 1.651,1.487 c -0.33,0.495 -0.66,0.826 -0.826,1.321 -8.258,13.048 -11.396,28.408 -9.249,43.603 l -2.147,0.66 c 0,0.166 -0.165,0.166 -0.165,0.33 -0.33,0.661 -0.826,1.322 -1.817,1.817 -2.477,0.826 -5.45,1.157 -8.918,1.487 h -0.166 c -0.495,0 -1.156,0 -1.651,0.165 -0.991,0 -1.982,0.165 -3.138,0.33 -0.33,0 -0.66,0.166 -0.991,0.166 -0.165,0 -0.33,0 -0.496,0.165 -2.973,0.66 -4.79,3.468 -4.294,6.11 0.496,2.313 2.643,3.8 5.285,3.8 0.496,0 0.826,0 1.322,-0.166 0.165,0 0.33,0 0.33,-0.165 0.33,0 0.66,-0.165 0.99,-0.165 1.157,-0.33 1.983,-0.66 2.974,-1.156 0.495,-0.165 0.99,-0.496 1.486,-0.66 h 0.165 c 3.138,-1.157 5.946,-2.148 8.589,-2.478 h 0.33 c 0.991,0 1.652,0.495 2.147,0.826 0.165,0 0.165,0.165 0.33,0.165 l 2.313,-0.33 c 3.964,12.221 11.561,23.122 21.636,31.05 2.312,1.816 4.624,3.303 7.102,4.79 l -0.991,2.146 c 0,0.166 0.165,0.166 0.165,0.33 0.33,0.661 0.66,1.487 0.33,2.643 -0.99,2.478 -2.477,4.955 -4.294,7.763 v 0.165 c -0.33,0.496 -0.66,0.826 -0.99,1.321 -0.661,0.826 -1.157,1.652 -1.818,2.643 -0.165,0.165 -0.33,0.495 -0.495,0.826 0,0.165 -0.165,0.33 -0.165,0.33 -1.321,2.808 -0.33,5.946 2.147,7.102 0.66,0.33 1.321,0.496 1.982,0.496 1.982,0 3.964,-1.322 4.955,-3.139 0,-0.165 0.165,-0.33 0.165,-0.33 0.165,-0.33 0.33,-0.66 0.495,-0.826 0.496,-1.156 0.661,-1.982 0.991,-2.973 l 0.496,-1.486 c 1.156,-3.303 1.982,-5.946 3.468,-8.258 0.66,-0.991 1.487,-1.156 2.147,-1.487 0.165,0 0.165,0 0.33,-0.165 l 1.157,-2.147 c 7.267,2.808 15.195,4.294 23.122,4.294 4.79,0 9.745,-0.495 14.37,-1.651 a 73.402,73.402 0 0 0 8.588,-2.478 l 0.99,1.817 c 0.166,0 0.166,0 0.331,0.165 0.826,0.165 1.486,0.496 2.147,1.487 1.321,2.312 2.312,5.12 3.468,8.258 v 0.165 l 0.496,1.486 c 0.33,0.991 0.495,1.982 0.99,2.973 0.166,0.33 0.331,0.496 0.496,0.826 0,0.165 0.166,0.33 0.166,0.33 0.99,1.982 2.972,3.139 4.954,3.139 0.661,0 1.322,-0.166 1.982,-0.496 1.156,-0.66 2.147,-1.652 2.478,-2.973 0.33,-1.321 0.33,-2.808 -0.33,-4.129 0,-0.165 -0.166,-0.165 -0.166,-0.33 -0.165,-0.33 -0.33,-0.66 -0.495,-0.826 -0.496,-0.991 -1.156,-1.817 -1.817,-2.643 -0.33,-0.495 -0.66,-0.825 -0.99,-1.32 v -0.166 c -1.818,-2.808 -3.47,-5.285 -4.295,-7.763 -0.33,-1.156 0,-1.816 0.165,-2.642 0,-0.165 0.165,-0.165 0.165,-0.33 l -0.826,-1.982 c 8.754,-5.12 16.186,-12.388 21.802,-21.306 2.973,-4.625 5.285,-9.745 6.936,-14.865 l 1.982,0.33 c 0.166,0 0.166,-0.165 0.33,-0.165 0.661,-0.33 1.157,-0.825 2.148,-0.825 h 0.33 c 2.643,0.33 5.45,1.32 8.589,2.477 h 0.165 c 0.495,0.165 0.99,0.495 1.486,0.66 0.991,0.496 1.817,0.826 2.973,1.157 0.33,0 0.66,0.165 0.991,0.165 0.165,0 0.33,0 0.495,0.165 0.496,0.165 0.826,0.165 1.322,0.165 2.477,0 4.624,-1.651 5.285,-3.798 0,-1.982 -1.817,-4.625 -4.79,-5.45 z m -76.47,-8.093 -7.267,3.469 -7.267,-3.469 -1.816,-7.762 4.954,-6.276 h 8.093 l 4.955,6.276 -1.651,7.762 z m 43.108,-17.176 a 52.078,52.078 0 0 1 1.156,16.68 l -25.27,-7.266 c -2.312,-0.66 -3.633,-2.973 -3.138,-5.285 0.165,-0.661 0.496,-1.322 0.991,-1.817 l 19.985,-18.003 c 2.807,4.625 4.954,9.91 6.276,15.69 z m -14.204,-25.6 -21.636,15.36 c -1.817,1.156 -4.295,0.825 -5.781,-0.991 -0.495,-0.496 -0.66,-1.157 -0.826,-1.817 l -1.486,-26.922 a 50.13,50.13 0 0 1 29.729,14.37 z M 116.769,78.12 c 1.817,-0.33 3.468,-0.66 5.285,-0.99 l -1.486,26.425 c -0.165,2.312 -1.982,4.294 -4.46,4.294 -0.66,0 -1.486,-0.165 -1.982,-0.495 L 92.16,91.665 c 6.772,-6.772 15.195,-11.397 24.609,-13.544 z m -32.537,23.453 19.654,17.507 c 1.817,1.487 1.982,4.294 0.496,6.111 -0.496,0.66 -1.156,1.156 -1.982,1.322 l -25.6,7.432 c -0.991,-11.231 1.486,-22.627 7.432,-32.372 z m -4.46,44.759 26.262,-4.46 c 2.147,-0.165 4.129,1.322 4.624,3.469 0.165,0.99 0.165,1.817 -0.165,2.643 l -10.075,24.278 c -9.249,-5.946 -16.681,-15.03 -20.645,-25.93 z m 60.285,32.867 c -3.799,0.826 -7.598,1.321 -11.562,1.321 -5.78,0 -11.396,-0.99 -16.68,-2.642 l 13.047,-23.618 c 1.321,-1.487 3.468,-2.147 5.285,-1.156 a 7.04,7.04 0 0 1 1.982,1.816 l 12.717,22.958 c -1.486,0.495 -3.138,0.826 -4.79,1.321 z m 32.206,-22.957 c -4.129,6.606 -9.58,11.891 -15.855,16.02 l -10.405,-24.94 c -0.496,-1.981 0.33,-4.128 2.312,-5.12 0.66,-0.33 1.486,-0.495 2.312,-0.495 l 26.426,4.46 c -0.991,3.633 -2.643,6.937 -4.79,10.075 z"
         inkscape:connector-curvature="0"
         style="fill:#ffffff" />
    </g>
  </g>
  <style
     id="style2996"
     type="text/css">
	.st0{fill:#DAF4CC;}
	.st1{fill:#6AAF4E;stroke:#424242;stroke-width:1.779;stroke-miterlimit:10;}
	.st2{fill:#FFFFFF;stroke:#424242;stroke-width:1.779;stroke-miterlimit:10;}
	.st3{fill:#424242;}
	.st4{fill:#FFFFFF;stroke:#424242;stroke-width:1.7265;stroke-miterlimit:10;}
	.st5{fill:none;stroke:#424242;stroke-width:2;stroke-miterlimit:10;}
	.st6{fill:#FFFFFF;stroke:#424242;stroke-width:2;stroke-miterlimit:10;}
	.st7{fill:#87D05F;}
	.st8{fill:#67B145;}
	.st9{fill:none;stroke:#424242;stroke-width:7;stroke-miterlimit:10;}
	.st10{fill:#FFFFFF;}
	.st11{fill:#6AAF4E;stroke:#6AAF4E;stroke-miterlimit:10;}
	.st12{fill:#424242;stroke:#424242;stroke-miterlimit:10;}
	.st13{fill:#6AAF4E;}
	.st14{fill:none;stroke:#6AAF4E;stroke-width:5;stroke-miterlimit:10;}
	.st15{fill:#FFFFFF;stroke:#6AAF4E;stroke-width:5;stroke-miterlimit:10;}
	.st16{fill:#68B245;}
	.st17{fill:none;stroke:#68B245;stroke-width:5;stroke-miterlimit:10;}
	.st18{fill:none;stroke:#6AAF4E;stroke-width:5;stroke-linecap:square;stroke-linejoin:round;stroke-miterlimit:10;}
	.st19{display:none;}
	.st20{display:inline;fill:none;stroke:#6AAF4E;stroke-width:4.1715;stroke-miterlimit:10;}
	.st21{display:inline;fill:none;stroke:#6AAF4E;stroke-width:4;stroke-miterlimit:10;}
	.st22{display:inline;fill:#6AAF4E;}
	.st23{fill:none;stroke:#6AAF4E;stroke-width:4.2239;stroke-miterlimit:10;}
	.st24{fill:#4BA647;}
</style>
</svg>
