<?xml version="1.0" encoding="UTF-8" standalone="no"?>
<!-- Created with Inkscape (http://www.inkscape.org/) -->

<svg
   xmlns:dc="http://purl.org/dc/elements/1.1/"
   xmlns:cc="http://creativecommons.org/ns#"
   xmlns:rdf="http://www.w3.org/1999/02/22-rdf-syntax-ns#"
   xmlns:svg="http://www.w3.org/2000/svg"
   xmlns="http://www.w3.org/2000/svg"
   xmlns:sodipodi="http://sodipodi.sourceforge.net/DTD/sodipodi-0.dtd"
   xmlns:inkscape="http://www.inkscape.org/namespaces/inkscape"
   width="162.62329mm"
   height="242.87683mm"
   viewBox="0 0 576.22426 860.58719"
   id="svg2"
   version="1.1"
   inkscape:version="0.92.2 (5c3e80d, 2017-08-06)"
   sodipodi:docname="rest-5.svg">
  <defs
     id="defs4">
    <linearGradient
       id="b"
       y2="1.85"
       x2="57.903"
       y1="1.85"
       x1="57.903"
       gradientTransform="scale(0)"
       gradientUnits="userSpaceOnUse">
      <stop
         id="stop4879"
         offset="0%"
         stop-color="#41873F" />
      <stop
         id="stop4881"
         offset="32.88%"
         stop-color="#418B3D" />
      <stop
         id="stop4883"
         offset="63.52%"
         stop-color="#419637" />
      <stop
         id="stop4885"
         offset="93.19%"
         stop-color="#3FA92D" />
      <stop
         id="stop4887"
         offset="100%"
         stop-color="#3FAE2A" />
    </linearGradient>
    <path
       d="m 57.903,1.85 a 5.957,5.957 0 0 0 -5.894,0 L 3.352,29.933 c -1.85,1.04 -2.89,3.005 -2.89,5.085 v 56.286 c 0,2.08 1.156,4.045 2.89,5.085 l 48.657,28.085 a 5.957,5.957 0 0 0 5.894,0 l 48.658,-28.085 c 1.849,-1.04 2.89,-3.005 2.89,-5.085 V 35.019 c 0,-2.08 -1.157,-4.045 -2.89,-5.085 z"
       id="a"
       inkscape:connector-curvature="0" />
    <linearGradient
       id="d"
       y2="-4.3421721"
       x2="102.80521"
       y1="22.882973"
       x1="59.834877"
       gradientTransform="scale(1.3193853,0.75792869)"
       gradientUnits="userSpaceOnUse">
      <stop
         id="stop4891"
         offset="13.76%"
         stop-color="#41873F" />
      <stop
         id="stop4893"
         offset="40.32%"
         stop-color="#54A044" />
      <stop
         id="stop4895"
         offset="71.36%"
         stop-color="#66B848" />
      <stop
         id="stop4897"
         offset="90.81%"
         stop-color="#6CC04A" />
    </linearGradient>
    <linearGradient
       id="e"
       y2="1.3961854"
       x2="60.624519"
       y1="1.3961854"
       x1="5.4630942"
       gradientTransform="scale(1.6318162,0.6128141)"
       gradientUnits="userSpaceOnUse">
      <stop
         id="stop4900"
         offset="9.192%"
         stop-color="#6CC04A" />
      <stop
         id="stop4902"
         offset="28.64%"
         stop-color="#66B848" />
      <stop
         id="stop4904"
         offset="59.68%"
         stop-color="#54A044" />
      <stop
         id="stop4906"
         offset="86.24%"
         stop-color="#41873F" />
    </linearGradient>
    <linearGradient
       id="f"
       y2="66.989662"
       x2="120.27905"
       y1="66.989662"
       x1="-1.4223322"
       gradientTransform="scale(0.92514783,1.0809083)"
       gradientUnits="userSpaceOnUse">
      <stop
         id="stop4909"
         offset="9.192%"
         stop-color="#6CC04A" />
      <stop
         id="stop4911"
         offset="28.64%"
         stop-color="#66B848" />
      <stop
         id="stop4913"
         offset="59.68%"
         stop-color="#54A044" />
      <stop
         id="stop4915"
         offset="86.24%"
         stop-color="#41873F" />
    </linearGradient>
    <linearGradient
       id="g"
       y2="68.39164"
       x2="169.56171"
       y1="68.39164"
       x1="117.94696"
       gradientTransform="scale(0.65492335,1.5268962)"
       gradientUnits="userSpaceOnUse">
      <stop
         id="stop4918"
         offset="9.192%"
         stop-color="#6CC04A" />
      <stop
         id="stop4920"
         offset="28.64%"
         stop-color="#66B848" />
      <stop
         id="stop4922"
         offset="59.68%"
         stop-color="#54A044" />
      <stop
         id="stop4924"
         offset="86.24%"
         stop-color="#41873F" />
    </linearGradient>
    <linearGradient
       id="h"
       y2="157.8152"
       x2="81.332504"
       y1="157.8152"
       x1="5.5872092"
       gradientTransform="scale(1.3178092,0.75883522)"
       gradientUnits="userSpaceOnUse">
      <stop
         id="stop4927"
         offset="9.192%"
         stop-color="#6CC04A" />
      <stop
         id="stop4929"
         offset="28.64%"
         stop-color="#66B848" />
      <stop
         id="stop4931"
         offset="59.68%"
         stop-color="#54A044" />
      <stop
         id="stop4933"
         offset="86.24%"
         stop-color="#41873F" />
    </linearGradient>
    <linearGradient
       id="i"
       y2="213.82344"
       x2="45.65274"
       y1="61.090031"
       x1="92.367607"
       gradientTransform="scale(1.3178092,0.75883522)"
       gradientUnits="userSpaceOnUse">
      <stop
         id="stop4936"
         offset="0%"
         stop-color="#41873F" />
      <stop
         id="stop4938"
         offset="32.88%"
         stop-color="#418B3D" />
      <stop
         id="stop4940"
         offset="63.52%"
         stop-color="#419637" />
      <stop
         id="stop4942"
         offset="93.19%"
         stop-color="#3FA92D" />
      <stop
         id="stop4944"
         offset="100%"
         stop-color="#3FAE2A" />
    </linearGradient>
  </defs>
  <sodipodi:namedview
     id="base"
     pagecolor="#201929"
     bordercolor="#666666"
     borderopacity="1.0"
     inkscape:pageopacity="1"
     inkscape:pageshadow="2"
     inkscape:zoom="0.39"
     inkscape:cx="-126.0651"
     inkscape:cy="303.90373"
     inkscape:document-units="px"
     inkscape:current-layer="layer1"
     showgrid="false"
     inkscape:window-width="1440"
     inkscape:window-height="744"
     inkscape:window-x="56"
     inkscape:window-y="176"
     inkscape:window-maximized="0"
     fit-margin-top="0"
     fit-margin-left="0"
     fit-margin-right="0"
     fit-margin-bottom="0" />
  <metadata
     id="metadata7">
    <rdf:RDF>
      <cc:Work
         rdf:about="">
        <dc:format>image/svg+xml</dc:format>
        <dc:type
           rdf:resource="http://purl.org/dc/dcmitype/StillImage" />
        <dc:title></dc:title>
      </cc:Work>
    </rdf:RDF>
  </metadata>
  <g
     inkscape:label="Calque 1"
     inkscape:groupmode="layer"
     id="layer1"
     transform="translate(-697.77785,-224.75916)">
    <rect
       style="fill:none;fill-opacity:1;stroke:#0099cc;stroke-width:7.24581289;stroke-linecap:round;stroke-miterlimit:4;stroke-dasharray:3.62290637, 3.62290637;stroke-dashoffset:0;stroke-opacity:1"
       id="rect3336"
       width="568.97845"
       height="756.20294"
       x="701.40076"
       y="325.52051" />
    <g
       id="g6581"
       transform="matrix(0.73189406,0,0,0.73189406,255.13602,151.74602)">
      <rect
         y="117.72555"
         x="987.62488"
         height="112.98077"
         width="19.23077"
         id="rect6575"
         style="fill:#0099cc;fill-opacity:1;stroke:#0099cc;stroke-width:7.08661413;stroke-linecap:round;stroke-miterlimit:4;stroke-dasharray:3.54330711, 3.54330711;stroke-dashoffset:0;stroke-opacity:1" />
      <rect
         y="103.30247"
         x="869.83649"
         height="28.846153"
         width="257.21155"
         id="rect6577"
         style="fill:#0099cc;fill-opacity:1;stroke:#0099cc;stroke-width:7.08661413;stroke-linecap:round;stroke-miterlimit:4;stroke-dasharray:3.54330711, 3.54330711;stroke-dashoffset:0;stroke-opacity:1" />
    </g>
    <text
       xml:space="preserve"
       style="font-style:normal;font-variant:normal;font-weight:bold;font-stretch:normal;font-size:50px;line-height:125%;font-family:sans-serif;-inkscape-font-specification:'sans-serif, Bold';font-variant-ligatures:normal;font-variant-caps:normal;font-variant-numeric:normal;font-feature-settings:normal;text-align:start;letter-spacing:0px;word-spacing:0px;writing-mode:lr-tb;text-anchor:start;fill:#0099cc;fill-opacity:1;stroke:none;stroke-width:0.9375px;stroke-linecap:butt;stroke-linejoin:miter;stroke-opacity:1"
       x="1106.4581"
       y="291.73404"
       id="text1049"><tspan
         sodipodi:role="line"
         id="tspan1047"
         x="1106.4581"
         y="291.73404"
         style="font-style:normal;font-variant:normal;font-weight:bold;font-stretch:normal;font-size:50px;font-family:sans-serif;-inkscape-font-specification:'sans-serif, Bold';font-variant-ligatures:normal;font-variant-caps:normal;font-variant-numeric:normal;font-feature-settings:normal;text-align:start;writing-mode:lr-tb;text-anchor:start;fill:#0099cc;fill-opacity:1;stroke-width:0.9375px">REST</tspan></text>
    <g
       id="g6565"
       transform="translate(1.4223823,-18.27179)">
      <g
         transform="matrix(0.19694951,0,0,0.19694951,945.04163,699.22012)"
         id="g4599">
        <path
           style="fill:#22a0c8;fill-rule:evenodd"
           inkscape:connector-curvature="0"
           d="m 1299.18,1370.6587 c 4.0787,-31.7043 -19.6463,-56.6053 -34.3597,-68.4292 -16.9563,19.6036 -19.5903,70.9808 7.0108,92.6119 -14.8464,13.1861 -46.1276,25.1378 -78.1592,25.1378 H 803.767 c -3.11296,33.4364 2.75643,64.2281 16.16344,90.5818 l 4.43531,8.115 a 150.42249,150.42249 0 0 0 9.19254,13.7928 c 16.03041,1.0297 30.81032,1.3835 44.33174,1.0855 h 0.005 c 26.57191,-0.5853 48.25355,-3.7249 64.68572,-9.4187 a 4.6854039,4.6854039 0 0 1 3.06773,8.8494 c -2.18706,0.7609 -4.46457,1.4686 -6.81659,2.1418 h -0.008 c -12.93874,3.6956 -26.81403,6.1807 -44.71488,7.2848 1.06426,0.019 -1.10683,0.1597 -1.11215,0.1597 -0.60929,0.04 -1.37555,0.1277 -1.9875,0.1596 -7.0454,0.3965 -14.64954,0.4789 -22.42396,0.4789 -8.50343,0 -16.8765,-0.1596 -26.23932,-0.6385 l -0.23946,0.1596 c 32.48653,36.5148 83.28365,58.4146 146.95832,58.4146 134.75666,0 249.05816,-59.7369 299.67436,-193.847 35.9081,3.685 70.4194,-5.4729 86.1172,-36.1183 -25.0048,-14.4287 -57.1614,-9.8284 -75.6768,-0.5215"
           id="path4530" />
        <path
           style="fill:#37b1d9;fill-rule:evenodd"
           inkscape:connector-curvature="0"
           d="m 1299.18,1370.6587 c 4.0787,-31.7043 -19.6463,-56.6053 -34.3597,-68.4292 -16.9563,19.6036 -19.5903,70.9808 7.0108,92.6119 -14.8464,13.1861 -46.1276,25.1378 -78.1592,25.1378 H 826.85611 c -1.59106,51.2068 17.41129,90.0763 51.03126,113.5751 h 0.008 c 26.57191,-0.5853 48.25355,-3.7249 64.68572,-9.4187 a 4.6854039,4.6854039 0 0 1 3.06773,8.8494 c -2.18706,0.7609 -4.46457,1.4686 -6.81659,2.1418 h -0.008 c -12.93874,3.6956 -28.006,6.4999 -45.90685,7.6041 -0.005,0 -0.43368,-0.4124 -0.439,-0.4124 45.86161,23.5255 112.35922,23.4403 188.60012,-5.8454 85.4867,-32.8431 165.0375,-95.4109 220.5413,-166.9744 -0.8355,0.3778 -1.6496,0.7636 -2.4398,1.16"
           id="path4532" />
        <path
           style="fill:#1b81a5;fill-rule:evenodd"
           inkscape:connector-curvature="0"
           d="m 804.49867,1460.6046 c 2.4212,17.9115 7.66268,34.6816 15.43177,49.9564 l 4.43531,8.115 a 150.14578,150.14578 0 0 0 9.19254,13.7928 c 16.03307,1.0297 30.81298,1.3835 44.33706,1.0855 26.57191,-0.5853 48.25355,-3.7249 64.68572,-9.4187 a 4.6854039,4.6854039 0 0 1 3.06773,8.8494 c -2.18706,0.7609 -4.46457,1.4686 -6.81659,2.1418 h -0.008 c -12.93874,3.6956 -27.92618,6.3403 -45.82703,7.4471 -0.61461,0.037 -1.68685,0.045 -2.30678,0.08 -7.04008,0.3937 -14.56706,0.6359 -22.34414,0.6359 -8.50077,0 -17.19577,-0.1623 -26.55328,-0.6386 32.48653,36.5148 83.59761,58.4944 147.27228,58.4944 115.36574,0 215.73614,-43.789 273.99104,-140.5409 H 804.49865"
           id="path4534" />
        <path
           style="fill:#1d91b4;fill-rule:evenodd"
           inkscape:connector-curvature="0"
           d="m 830.36551,1460.6046 c 6.8964,31.4489 23.46959,56.1371 47.52984,72.9497 26.57191,-0.5853 48.25355,-3.7249 64.68572,-9.4187 a 4.6854039,4.6854039 0 0 1 3.06773,8.8494 c -2.18706,0.7609 -4.46457,1.4686 -6.81659,2.1418 h -0.008 c -12.93874,3.6956 -28.24279,6.3403 -46.14631,7.4471 45.85896,23.5202 112.165,23.1823 188.4006,-6.1008 46.1197,-17.72 90.5073,-44.0976 130.3293,-75.8685 H 830.36549"
           id="path4536" />
        <path
           style="fill:#23a3c2;fill-rule:evenodd"
           inkscape:connector-curvature="0"
           d="m 856.68732,1357.7892 h 52.72875 v 52.7287 h -52.72875 z m 4.39273,4.3954 h 4.16126 v 43.9406 h -4.16126 z m 7.82231,0 h 4.32888 v 43.9406 h -4.32622 v -43.9406 z m 7.98727,0 h 4.32888 v 43.9406 h -4.32888 z m 7.99259,0 h 4.32622 v 43.9406 h -4.32622 z m 7.98993,0 h 4.32622 v 43.9406 h -4.32622 z m 7.98727,0 h 4.16392 v 43.9406 h -4.16392 z m 16.66631,-65.2339 h 52.73142 v 52.7261 h -52.73408 v -52.7261 z m 4.39539,4.3954 h 4.1586 v 43.938 h -4.1586 z m 7.82231,0 h 4.32622 v 43.938 h -4.32356 v -43.938 z m 7.98727,0 h 4.32622 v 43.938 h -4.32622 z m 7.98993,0 h 4.32622 v 43.938 h -4.32622 z m 7.98994,0 h 4.32887 v 43.938 h -4.32887 z m 7.98727,0 h 4.16657 v 43.938 h -4.16657 z"
           id="path4538" />
        <path
           style="fill:#34bbde;fill-rule:evenodd"
           inkscape:connector-curvature="0"
           d="m 917.52573,1357.7892 h 52.73142 v 52.7287 h -52.73408 v -52.7287 z m 4.39539,4.3954 h 4.1586 v 43.9406 h -4.1586 z m 7.82231,0 h 4.32622 v 43.9406 h -4.32356 v -43.9406 z m 7.98727,0 h 4.32622 v 43.9406 h -4.32622 z m 7.98993,0 h 4.32622 v 43.9406 h -4.32622 z m 7.98994,0 h 4.32887 v 43.9406 h -4.32887 z m 7.98727,0 h 4.16657 v 43.9406 h -4.16657 z"
           id="path4540" />
        <path
           style="fill:#23a3c2;fill-rule:evenodd"
           inkscape:connector-curvature="0"
           d="m 978.36681,1357.7892 h 52.72879 v 52.7287 h -52.72879 z m 4.39273,4.3954 h 4.15859 v 43.9406 h -4.15859 z m 7.82231,0 h 4.32621 v 43.9406 h -4.32621 z m 7.98993,0 h 4.32622 v 43.9406 h -4.32622 z m 7.98992,0 h 4.3262 v 43.9406 h -4.3262 z m 7.9873,0 h 4.3315 v 43.9406 h -4.3315 z m 7.9899,0 h 4.1613 v 43.9406 h -4.1613 z"
           id="path4542" />
        <path
           style="fill:#34bbde;fill-rule:evenodd"
           inkscape:connector-curvature="0"
           d="m 978.36681,1296.9507 h 52.72879 v 52.7261 h -52.72879 z m 4.39273,4.3954 h 4.15859 v 43.938 h -4.15859 z m 7.82231,0 h 4.32621 v 43.938 h -4.32621 z m 7.98993,0 h 4.32622 v 43.938 h -4.32622 z m 7.98992,0 h 4.3262 v 43.938 h -4.3262 z m 7.9873,0 h 4.3315 v 43.938 h -4.3315 z m 7.9899,0 h 4.1613 v 43.938 h -4.1613 z m 16.6663,56.4431 h 52.7288 v 52.7287 h -52.7288 z m 4.3954,4.3954 h 4.1586 v 43.9406 h -4.1586 z m 7.8223,0 h 4.3262 v 43.9406 h -4.3262 z m 7.9873,0 h 4.3262 v 43.9406 h -4.3262 z m 7.9899,0 h 4.3289 v 43.9406 h -4.3289 z m 7.99,0 h 4.3288 v 43.9406 h -4.3288 z m 7.9899,0 h 4.1612 v 43.9406 h -4.1612 z"
           id="path4544" />
        <path
           style="fill:#23a3c2;fill-rule:evenodd"
           inkscape:connector-curvature="0"
           d="m 1039.2052,1296.9507 h 52.7288 v 52.7261 h -52.7288 z m 4.3954,4.3954 h 4.1586 v 43.938 h -4.1586 z m 7.8223,0 h 4.3262 v 43.938 h -4.3262 z m 7.9873,0 h 4.3262 v 43.938 h -4.3262 z m 7.9899,0 h 4.3289 v 43.938 h -4.3289 z m 7.99,0 h 4.3288 v 43.938 h -4.3288 z m 7.9899,0 h 4.1612 v 43.938 h -4.1612 z"
           id="path4546" />
        <path
           style="fill:#34bbde;fill-rule:evenodd"
           inkscape:connector-curvature="0"
           d="m 1039.2052,1236.1097 h 52.7288 v 52.7341 h -52.7288 z m 4.3954,4.3927 h 4.1586 v 43.9433 h -4.1586 v -43.946 z m 7.8223,0 h 4.3262 v 43.9433 h -4.3262 v -43.946 z m 7.9873,0 h 4.3262 v 43.9433 h -4.3262 v -43.946 z m 7.9899,0 h 4.3289 v 43.9433 h -4.3289 v -43.946 z m 7.99,0 h 4.3288 v 43.9433 h -4.3288 v -43.946 z m 7.9899,0 h 4.1612 v 43.9433 h -4.1612 v -43.946 z"
           id="path4548" />
        <path
           style="fill:#23a3c2;fill-rule:evenodd"
           inkscape:connector-curvature="0"
           d="m 1100.0436,1357.7892 h 52.7288 v 52.7287 h -52.7288 z m 4.3901,4.3954 h 4.1639 v 43.9406 h -4.1612 v -43.9406 z m 7.8223,0 h 4.3289 v 43.9406 h -4.3262 v -43.9406 z m 7.9926,0 h 4.3289 v 43.9406 h -4.3289 z m 7.9873,0 h 4.3289 v 43.9406 h -4.3289 z m 7.9926,0 h 4.3262 v 43.9406 h -4.3262 z m 7.9872,0 h 4.1613 v 43.9406 h -4.1613 z"
           id="path4550" />
        <path
           style="fill:#d3ecec;fill-rule:evenodd"
           inkscape:connector-curvature="0"
           d="M 966.95528,1496.0072"
           id="path4552" />
        <path
           style="fill:#364548;fill-rule:evenodd"
           inkscape:connector-curvature="0"
           d="m 966.95528,1500.1339 c 1.33032,0 2.59945,0.2501 3.77014,0.7051 a 4.2517181,4.2517181 0 0 0 2.1232,7.9287 c 1.60969,0 3.00653,-0.8913 3.73023,-2.211"
           id="path4554" />
        <path
           style="fill:#bdd9d7;fill-rule:evenodd"
           inkscape:connector-curvature="0"
           d="m 1005.6225,1600.8315 c -36.0252,-17.0947 -55.79648,-40.3354 -66.79827,-65.7021 -13.38307,3.8181 -29.46669,6.2605 -48.15776,7.3088 -7.04008,0.3938 -14.44732,0.596 -22.21642,0.596 -8.96107,0 -18.40371,-0.266 -28.31729,-0.7902 33.03728,33.0187 73.6787,58.4385 148.93252,58.9015 5.55543,0 11.06832,-0.1064 16.55722,-0.314"
           id="path4556" />
        <path
           style="fill:#d3ecec;fill-rule:evenodd"
           inkscape:connector-curvature="0"
           d="m 952.20464,1558.5378 c -4.9834,-6.766 -9.8178,-15.2694 -13.37243,-23.4137 -13.38306,3.8234 -29.47201,6.2658 -48.16574,7.3168 12.8403,6.9682 31.20144,13.4256 61.54083,16.0969"
           id="path4558" />
      </g>
      <path
         id="path4948"
         d="m 797.29573,1028.8148 c -1.38296,0 -2.67416,-0.3686 -3.87357,-1.0142 l -12.26632,-7.2859 c -1.84502,-1.0151 -0.9225,-1.3838 -0.36868,-1.5681 2.48981,-0.8299 2.95106,-1.0151 5.53344,-2.4898 0.27692,-0.1851 0.6464,-0.093 0.92252,0.092 l 9.40781,5.626 c 0.3687,0.1843 0.82994,0.1843 1.10606,0 l 36.80054,-21.3054 c 0.36868,-0.1843 0.55382,-0.5538 0.55382,-1.01428 v -42.51838 c 0,-0.46204 -0.18514,-0.82986 -0.55382,-1.01503 l -36.80054,-21.21288 c -0.36869,-0.18517 -0.82993,-0.18517 -1.10606,0 l -36.80053,21.21288 c -0.3687,0.18433 -0.55383,0.64562 -0.55383,1.01428 v 42.51838 c 0,0.36943 0.18513,0.82983 0.55383,1.01503 l 10.05341,5.8104 c 5.44168,2.7667 8.85399,-0.4613 8.85399,-3.6893 v -41.96532 c 0,-0.55298 0.46125,-1.10681 1.10685,-1.10681 h 4.70351 c 0.55382,0 1.10685,0.46129 1.10685,1.10681 v 41.96532 c 0,7.2859 -3.96614,11.529 -10.88335,11.529 -2.12113,0 -3.78101,0 -8.48531,-2.3063 l -9.68393,-5.5334 c -2.39805,-1.383 -3.87358,-3.9662 -3.87358,-6.73289 v -42.51838 c 0,-2.76671 1.47553,-5.34984 3.87358,-6.73287 l 36.79974,-21.30542 c 2.30627,-1.29123 5.44248,-1.29123 7.74794,0 l 36.79974,21.30542 c 2.39806,1.38303 3.87438,3.96616 3.87438,6.73287 v 42.51838 c 0,2.76669 -1.47632,5.34989 -3.87438,6.73289 l -36.79974,21.3054 c -1.19942,0.5538 -2.58238,0.8299 -3.87357,0.8299 z m 11.34461,-29.23685 c -16.13988,0 -19.46043,-7.37849 -19.46043,-13.65006 0,-0.55383 0.46124,-1.10691 1.10684,-1.10691 h 4.79608 c 0.55303,0 1.01428,0.36875 1.01428,0.92248 0.73817,4.8879 2.8593,7.28595 12.6358,7.28595 7.74714,0 11.06849,-1.75243 11.06849,-5.90292 0,-2.39805 -0.92331,-4.14974 -13.00528,-5.34909 -10.05342,-1.01512 -16.32503,-3.228 -16.32503,-11.2521 0,-7.47103 6.27242,-11.89838 16.78629,-11.89838 11.80505,0 17.61621,4.05869 18.35438,12.91191 0,0.2777 -0.0925,0.55382 -0.27692,0.83069 -0.18513,0.18433 -0.46125,0.36866 -0.73815,0.36866 h -4.79609 c -0.46125,0 -0.92251,-0.36866 -1.01428,-0.82986 -1.10685,-5.07222 -3.96614,-6.73286 -11.52894,-6.73286 -8.48531,0 -9.50039,2.95188 -9.50039,5.16476 0,2.67492 1.19942,3.50487 12.6358,4.98043 11.3446,1.47632 16.6945,3.59741 16.6945,11.52888 -0.0925,8.11664 -6.73286,12.72842 -18.44695,12.72842 z"
         inkscape:connector-curvature="0"
         style="fill:#539e43;stroke-width:0.56682563" />
      <path
         style="fill:#aaaaaa;stroke-width:0.41486642"
         inkscape:connector-curvature="0"
         d="m 870.4977,995.82949 v -23.63953 h 29.51525 v -1.38275 H 870.4977 v -21.56592 h 31.38136 v -1.38238 h -32.7637 v 49.35295 h 33.03998 v -1.38237 h -31.65722 z m 58.27008,-34.14637 -12.23439,16.1055 -11.95854,-16.10513 h -1.79721 l 12.92602,17.14231 -14.17063,18.3856 h 1.65906 l 13.34046,-17.34973 13.40972,17.34973 h 1.72789 l -14.23904,-18.38644 12.99487,-17.14231 h -1.65863 z m 7.05026,47.69428 v -22.11864 h 0.1381 c 0.82974,3.22557 2.46559,5.81767 4.90787,7.7763 2.44233,1.95817 5.55263,2.93768 9.33124,2.93768 2.44227,0 4.60828,-0.49541 6.49758,-1.48604 1.8893,-0.99072 3.46748,-2.3386 4.73491,-4.04374 1.26701,-1.70514 2.23484,-3.68648 2.90322,-5.94461 0.66796,-2.25775 1.00233,-4.63112 1.00233,-7.1191 0,-2.67305 -0.34603,-5.13859 -1.03717,-7.39624 -0.69114,-2.25812 -1.69347,-4.21676 -3.00655,-5.87535 -1.31344,-1.65905 -2.90322,-2.94973 -4.76969,-3.87072 -1.86612,-0.92183 -3.97445,-1.38274 -6.32463,-1.38274 -1.79721,0 -3.46749,0.26509 -5.0112,0.79489 -1.5437,0.53018 -2.91444,1.27862 -4.1126,2.24653 a 15.214812,15.214812 0 0 0 -3.11065,3.4214 c -0.87533,1.31339 -1.54371,2.75344 -2.00466,4.32042 h -0.1381 v -9.95432 h -1.38235 v 47.69428 z m 14.37721,-12.71862 c -4.33122,0 -7.81073,-1.48603 -10.43725,-4.4581 -2.62652,-2.97207 -3.93996,-7.2465 -3.93996,-12.82227 0,-2.3042 0.32278,-4.49306 0.96784,-6.56648 0.64512,-2.07351 1.57819,-3.894 2.79911,-5.46051 1.22141,-1.56699 2.73069,-2.81111 4.52749,-3.73257 1.79715,-0.92183 3.82504,-1.38275 6.08277,-1.38275 2.30411,0 4.32041,0.46092 6.04829,1.38275 1.72795,0.92146 3.15673,2.17727 4.28557,3.76697 1.12889,1.58979 1.98145,3.41027 2.55767,5.46051 0.5758,2.0507 0.86373,4.22788 0.86373,6.53208 0,2.07389 -0.26468,4.13619 -0.79488,6.18643 -0.52979,2.0507 -1.34787,3.89399 -2.45393,5.53024 -1.10559,1.6354 -2.52236,2.9717 -4.25073,4.00878 -1.72831,1.0368 -3.81345,1.55492 -6.25572,1.55492 z m 22.74126,0.55308 v -20.11438 c 0,-1.93536 0.27634,-3.8251 0.82973,-5.66792 0.55262,-1.84329 1.40518,-3.46786 2.55726,-4.87304 1.15208,-1.40555 2.61493,-2.51162 4.38931,-3.31811 1.77397,-0.80648 3.88229,-1.14046 6.32463,-1.00231 v -1.38237 c -2.11999,-0.0458 -3.97444,0.18423 -5.56422,0.69123 -1.59014,0.50691 -2.96089,1.19814 -4.11297,2.07389 -1.15209,0.87538 -2.07349,1.90049 -2.76464,3.07583 a 13.752822,13.752822 0 0 0 -1.52093,3.76696 h -0.13817 v -8.77852 h -1.38228 v 35.52912 h 1.38228 z m 15.82882,-17.48788 h 29.72227 c 0.093,-2.44235 -0.1493,-4.79208 -0.7256,-7.0502 -0.5758,-2.25813 -1.4977,-4.26284 -2.7647,-6.0135 -1.2673,-1.75122 -2.9032,-3.15678 -4.9078,-4.21676 -2.0046,-1.05999 -4.3893,-1.58979 -7.154,-1.58979 -1.9818,0 -3.91711,0.41493 -5.80648,1.24459 -1.88924,0.82939 -3.54834,2.03874 -4.9767,3.62844 -1.42836,1.58979 -2.58045,3.53674 -3.45583,5.84132 -0.87539,2.30374 -1.31344,4.93033 -1.31344,7.8796 0,2.6265 0.29952,5.08045 0.89857,7.36138 0.59906,2.28093 1.52046,4.26274 2.76469,5.94461 1.2446,1.68186 2.84597,2.98375 4.80411,3.90511 1.95822,0.92184 4.32008,1.35957 7.08508,1.31349 4.0549,0 7.4651,-1.14084 10.2298,-3.4214 2.7651,-2.2813 4.4009,-5.49528 4.9079,-9.64268 h -1.3823 c -0.5991,3.91708 -2.1316,6.85475 -4.5968,8.81292 -2.4655,1.95864 -5.5642,2.93767 -9.2972,2.93767 -2.5343,0 -4.67715,-0.43764 -6.42828,-1.31301 -1.75077,-0.87538 -3.17956,-2.07389 -4.28557,-3.59442 -1.10564,-1.5209 -1.92378,-3.30651 -2.45351,-5.35713 -0.5302,-2.05033 -0.81814,-4.27396 -0.86421,-6.67024 z m 28.33997,-1.38237 h -28.33955 c 0.13775,-2.48835 0.5987,-4.7232 1.38192,-6.70464 0.78372,-1.98181 1.80881,-3.67527 3.07623,-5.08045 1.26701,-1.40555 2.74187,-2.47675 4.42374,-3.21435 1.68187,-0.73722 3.49066,-1.10607 5.42606,-1.10607 2.3042,0 4.3312,0.42652 6.0828,1.27909 1.7507,0.85247 3.2139,2.01621 4.3892,3.49066 1.1749,1.47444 2.0619,3.19117 2.661,5.14934 0.5991,1.95854 0.8986,4.02084 0.8986,6.18642 z m 30.0683,-6.15165 h 1.3823 c 0,-3.96317 -1.1521,-6.84317 -3.4558,-8.64037 -2.3046,-1.79721 -5.4381,-2.69586 -9.4009,-2.69586 -2.2121,0 -4.0782,0.27677 -5.599,0.82976 -1.5205,0.55261 -2.7647,1.26703 -3.7326,2.1424 -0.9674,0.87538 -1.6587,1.8432 -2.0735,2.90318 -0.4149,1.05999 -0.6223,2.07398 -0.6223,3.04143 0,1.93536 0.3456,3.47907 1.0371,4.63113 0.6913,1.15214 1.774,2.0507 3.2484,2.69585 1.014,0.46045 2.1657,0.87538 3.4563,1.2446 1.2903,0.36837 2.7879,0.76003 4.493,1.17449 1.5205,0.36922 3.0182,0.73759 4.4931,1.10597 1.4743,0.36885 2.7762,0.86416 3.9051,1.48613 1.1292,0.62225 2.0506,1.41714 2.765,2.38506 0.7141,0.96745 1.0713,2.23485 1.0713,3.80136 0,1.5209 -0.3569,2.81121 -1.0713,3.87072 a 8.6354455,8.6354455 0 0 1 -2.7302,2.59248 c -1.106,0.66796 -2.339,1.15168 -3.6981,1.45126 -1.3595,0.29949 -2.6842,0.44923 -3.9744,0.44923 -4.1935,0 -7.4079,-0.93295 -9.6427,-2.79905 -2.235,-1.86647 -3.3522,-4.80414 -3.3522,-8.81339 h -1.3828 c 0,4.47017 1.2098,7.74182 3.6289,9.8157 2.4195,2.07352 6.0023,3.11023 10.7488,3.11023 1.5205,0 3.0526,-0.17302 4.5967,-0.51859 1.5433,-0.34557 2.9261,-0.90977 4.147,-1.69345 a 9.3726629,9.3726629 0 0 0 2.9721,-3.04096 c 0.7605,-1.2446 1.1409,-2.76512 1.1409,-4.56233 0,-1.70504 -0.3344,-3.08742 -1.0024,-4.1474 -0.6683,-1.05952 -1.5437,-1.93536 -2.6268,-2.6265 -1.0829,-0.69114 -2.3039,-1.23254 -3.6634,-1.62419 a 214.10427,214.10427 0 0 0 -4.1129,-1.14093 716.33953,716.33953 0 0 0 -5.0805,-1.31302 c -1.4512,-0.36884 -2.7991,-0.80649 -4.0433,-1.31348 -1.1981,-0.507 -2.1544,-1.23254 -2.8688,-2.17718 -0.7144,-0.94473 -1.0711,-2.29261 -1.0711,-4.04374 0,-0.32239 0.092,-0.89856 0.2762,-1.72794 0.1843,-0.82967 0.6223,-1.67065 1.3135,-2.52322 0.6912,-0.8521 1.7507,-1.61259 3.1795,-2.28093 1.4284,-0.66795 3.387,-1.00231 5.8754,-1.00231 1.7051,0 3.26,0.18461 4.6656,0.55308 1.4055,0.36875 2.6153,0.95623 3.6288,1.76272 1.014,0.80648 1.7972,1.8316 2.3502,3.07582 0.553,1.2446 0.8298,2.76513 0.8298,4.56224 z m 32.0032,0 h 1.3823 c 0,-3.96317 -1.1517,-6.84317 -3.4558,-8.64037 -2.3042,-1.79721 -5.4377,-2.69586 -9.4009,-2.69586 -2.2117,0 -4.0781,0.27677 -5.5987,0.82976 -1.5209,0.55261 -2.765,1.26703 -3.7324,2.1424 -0.9679,0.87538 -1.6591,1.8432 -2.074,2.90318 -0.4148,1.05999 -0.6219,2.07398 -0.6219,3.04143 0,1.93536 0.3456,3.47907 1.0372,4.63113 0.6908,1.15214 1.774,2.0507 3.2484,2.69585 1.014,0.46045 2.1656,0.87538 3.4559,1.2446 1.2902,0.36837 2.7878,0.76003 4.4929,1.17449 1.5209,0.36922 3.0186,0.73759 4.493,1.10597 1.4749,0.36885 2.7763,0.86416 3.9056,1.48613 1.1289,0.62225 2.0507,1.41714 2.7646,2.38506 0.7145,0.96745 1.0716,2.23485 1.0716,3.80136 0,1.5209 -0.3571,2.81121 -1.0716,3.87072 a 8.6354455,8.6354455 0 0 1 -2.7297,2.59248 c -1.1065,0.66796 -2.3391,1.15168 -3.6986,1.45126 -1.3591,0.29949 -2.6842,0.44923 -3.9744,0.44923 -4.1935,0 -7.4074,-0.93295 -9.6424,-2.79905 -2.2352,-1.86647 -3.3525,-4.80414 -3.3525,-8.81339 h -1.3823 c 0,4.47017 1.2093,7.74182 3.6288,9.8157 2.4191,2.07352 6.0019,3.11023 10.7484,3.11023 1.5209,0 3.053,-0.17302 4.5967,-0.51859 1.5433,-0.34557 2.926,-0.90977 4.1475,-1.69345 a 9.3726629,9.3726629 0 0 0 2.972,-3.04096 c 0.7605,-1.2446 1.1405,-2.76512 1.1405,-4.56233 0,-1.70504 -0.3339,-3.08742 -1.0023,-4.1474 -0.668,-1.05952 -1.5433,-1.93536 -2.6265,-2.6265 -1.0828,-0.69114 -2.3042,-1.23254 -3.6633,-1.62419 a 214.10054,214.10054 0 0 0 -4.1129,-1.14093 716.32911,716.32911 0 0 0 -5.0806,-1.31302 c -1.4515,-0.36884 -2.7995,-0.80649 -4.0436,-1.31348 -1.1982,-0.507 -2.1545,-1.23254 -2.8684,-2.17718 -0.7144,-0.94473 -1.0716,-2.29261 -1.0716,-4.04374 0,-0.32239 0.092,-0.89856 0.2767,-1.72794 0.1842,-0.82967 0.6223,-1.67065 1.313,-2.52322 0.6912,-0.8521 1.7512,-1.61259 3.1796,-2.28093 1.4287,-0.66795 3.387,-1.00231 5.8757,-1.00231 1.7051,0 3.26,0.18461 4.6656,0.55308 1.4056,0.36875 2.6149,0.95623 3.6289,1.76272 1.0139,0.80648 1.7972,1.8316 2.3501,3.07582 0.5531,1.2446 0.8298,2.76513 0.8298,4.56224 z"
         id="path4080" />
      <rect
         y="911.74188"
         x="736.78833"
         height="133.75252"
         width="500.86505"
         id="rect3336-6"
         style="fill:none;fill-opacity:1;stroke:#0099cc;stroke-width:3.951262;stroke-linecap:round;stroke-miterlimit:4;stroke-dasharray:11.85378654, 11.85378654;stroke-dashoffset:0;stroke-opacity:1" />
    </g>
    <g
       id="g6442"
       transform="translate(651.61593,111.25865)">
      <path
         inkscape:connector-curvature="0"
         id="path4970"
         d="m 278.58746,386.69051 c -0.58102,0.0615 -1.13624,0.26662 -1.64129,0.63213 -4.06116,2.93931 -7.08616,6.55821 -7.11338,12.14707 -2.59971,-4.49431 -2.15919,-7.60677 -9.33168,-8.0559 -5.36315,-0.33581 -7.74835,10.16863 -4.68836,14.49353 6.77156,9.57108 6.81483,9.75478 13.8686,17.75542 4.20687,-8.97195 21.74329,-17.96816 19.54289,-26.77217 -1.06041,-4.2425 -6.56942,-10.62974 -10.63678,-10.20008 z"
         style="fill:#00bfff;fill-opacity:1;fill-rule:evenodd;stroke:none;stroke-width:2.76862526px;stroke-linecap:butt;stroke-linejoin:miter;stroke-opacity:1" />
      <path
         inkscape:connector-curvature="0"
         id="path5212"
         d="m 403.32186,386.59948 c -37.46622,23.84672 -75.57261,46.93683 -112.64691,71.24403 -2.08516,1.59667 -4.17143,3.19237 -6.2566,4.78906 l -0.16833,-25.80627 -31.69741,1.22888 -0.20654,49.13955 c -18.81477,14.40632 -37.6304,28.81145 -56.44404,43.21774 l 5.71331,14.33177 6.79423,-5.12789 v 10.56422 c -3.56474,4.2278 -10.0495,12.04499 -17.25723,20.70867 -7.93906,9.54268 -15.8532,18.99369 -18.47296,21.88704 -8.6e-4,8.3e-4 0,0.009 0,0.0104 v 0 c -1.60771,1.775 -2.69262,3.27313 -3.32728,4.67274 -0.63465,1.39963 -0.82937,2.85384 -0.16335,4.11645 0.6668,1.26263 1.98572,1.97904 3.34389,2.37681 1.35824,0.39779 2.88793,0.55663 4.61552,0.61702 4.99435,0.17414 10.83217,-0.77068 16.1428,-3.65124 0,0.48932 -0.3126,1.01348 -0.12902,1.47668 0.51281,1.29546 1.70351,2.20895 3.01357,2.7561 1.31003,0.54717 2.81735,0.82866 4.5257,0.99624 2.40987,0.23617 5.03538,0.13536 7.71309,-0.35399 v 93.04 l 216.08522,35.67761 v 0.14176 l 0.11216,-0.12153 0.11766,0.0222 c 0.0222,-0.0324 -0.0222,-0.0547 0,-0.0861 v -0.0607 c 25.16968,-26.83116 49.8394,-54.03193 75.12966,-80.72604 V 500.64934 c 2.18455,-2.47814 4.35853,-4.96168 6.51426,-7.45921 5.01725,-7.11583 4.03215,-16.25376 2.35816,-24.12222 -4.94389,-9.18417 -15.64622,-14.01656 -23.59813,-20.87561 -27.26857,-20.52979 -54.53784,-41.06026 -81.80639,-61.59006 z m -0.39209,8.91563 h 0.006 l 94.70611,71.30467 c 3.09549,2.588 4.2963,4.90213 4.32977,7.42379 0.0308,2.21654 -0.96243,4.9129 -3.49516,8.12166 -0.009,0.011 -0.0167,0.0221 -0.025,0.0354 -0.34568,0.43752 -0.71988,0.88266 -1.12581,1.34009 l -8.46914,9.59833 -15.81234,17.92228 -7.90894,8.96113 c -0.0104,0.0134 -0.025,0.0277 -0.0338,0.0405 l -15.41468,17.47217 -7.00158,7.9295 c -0.51405,0.47824 -1.02732,0.92591 -1.54039,1.34518 -0.001,10e-4 -0.009,0.006 -0.0104,0.0104 -0.5093,0.41592 -1.01966,0.80341 -1.52914,1.16314 -0.006,10e-4 -0.0104,0.0104 -0.0193,0.0167 -2.54564,1.7937 -5.09967,2.89683 -7.72975,3.43375 -0.76583,0.14206 -1.53475,0.25582 -2.31327,0.30846 -0.45148,0.0357 -0.91038,0.0617 -1.37238,0.0659 -0.10055,6.8e-4 -0.20155,-0.006 -0.30236,-0.006 -0.0104,-8e-5 -0.025,9e-5 -0.0335,0 -0.58458,-0.006 -1.17349,-0.0347 -1.77564,-0.0913 -0.0482,-10e-4 -0.0974,-0.0104 -0.14592,-0.0167 -0.57832,-0.0579 -1.16346,-0.14176 -1.75876,-0.24779 -0.10517,-0.0193 -0.20849,-0.0308 -0.3137,-0.0504 -0.53226,-0.10219 -1.07805,-0.22869 -1.62435,-0.36917 -0.1196,-0.0308 -0.23949,-0.0534 -0.35849,-0.0861 -1.88686,-0.51288 -3.8553,-1.25113 -5.9205,-2.23522 l -0.84578,-0.67765 c -1.98724,-1.18945 -3.80734,-2.59827 -5.3324,-4.19234 L 309.0473,463.47359 c 0.0194,-0.011 0.0277,-0.0222 0.0448,-0.0354 l -6.24535,-4.99636 100.07766,-62.92518 z m -126.52133,48.74511 0.15173,24.39026 c -5.43509,4.16174 -10.86999,8.32407 -16.30513,12.48589 l 0.15809,-36.25922 15.99709,-0.61693 z m 18.85955,29.81646 c 38.34529,29.82718 76.54833,59.83979 114.98261,89.55066 2.08062,1.22735 4.30156,2.12841 6.58152,2.78135 v 8.85496 c -7.35718,-1.00009 -14.71649,-1.99648 -22.07456,-2.99377 -7.6187,-1.03257 -15.23986,-2.06424 -22.85873,-3.09497 -7.62366,-1.03273 -15.22988,-2.06289 -22.85318,-3.09491 -7.61906,-1.03019 -15.23513,-2.06405 -22.85309,-3.09493 -7.6177,-1.03081 -15.23164,-2.06221 -22.84758,-3.09494 -7.61582,-1.0327 -15.23408,-2.06411 -22.84755,-3.09996 -7.61328,-1.03585 -15.22049,-2.07495 -22.83061,-3.11516 -7.61012,-1.04019 -15.22453,-2.08452 -22.83094,-3.13033 -6.18107,-0.84992 -12.35552,-1.70042 -18.53429,-2.55384 v -14.32668 z m 196.62657,35.50571 v 73.04434 c 10e-4,-10e-4 0.009,-10e-4 0.0104,-0.006 v 0.0405 c -0.006,0.006 -0.0104,0.0134 -0.0193,0.0222 -0.0797,22.66948 -0.0479,45.21653 -0.0193,67.78502 l -67.15349,72.25542 c -0.0665,-51.54621 0.006,-103.42883 0.006,-155.14587 9.7166,0.17305 19.44932,-4.06425 24.98158,-11.68691 13.92868,-15.52466 28.24371,-30.79315 42.18873,-46.30762 z m -257.88202,44.37077 19.80619,2.70553 -34.77833,40.96731 c -9.08453,6.07932 -27.16049,6.85107 -20.04684,-2.07846 z m 45.69508,6.33649 20.21504,2.72067 -35.49519,41.14437 c -9.27002,6.10552 -27.70885,6.87941 -20.45031,-2.08856 z m 46.10401,6.34157 20.21495,2.71566 -37.57324,43.84985 c -8.11822,8.39327 -27.70333,6.87945 -20.4446,-2.08854 z m 45.63909,6.33652 20.2149,2.71563 -39.41044,46.76275 c -10.65212,10.26506 -27.70895,6.87942 -20.45017,-2.08857 z m 45.37575,7.72717 -0.0393,145.30991 -119.10515,-19.67199 -0.75616,-83.76533 c 2.96594,-0.6349 6.03936,-1.90929 8.99559,-3.73215 -0.15975,0.68084 -0.56339,1.4107 -0.58252,2.0633 -0.0479,1.62687 0.40818,3.19057 1.43393,4.44517 1.02569,1.25462 2.57853,2.12865 4.40817,2.57405 0.33875,0.0825 0.68776,0.13789 1.03622,0.19213 l -0.81212,46.23682 80.30519,13.42146 0.0781,-4.20748 1.33312,-74.30356 c 2.80163,-3.37125 3.49284,-4.19834 6.71029,-8.07107 8.15035,-9.81054 14.69079,-17.69245 16.9942,-20.49126 z M 216.62624,602.9764 c -0.0277,0.5023 -0.3298,1.03533 -0.19491,1.52719 0.36532,1.34025 1.39547,2.43946 2.65503,3.14553 1.25983,0.70607 2.75713,1.11592 4.46435,1.37553 4.82259,0.73283 10.58437,-0.18744 15.89072,-3.00391 -0.0546,0.54125 -0.38024,1.10975 -0.29132,1.63851 0.14619,0.86657 0.54949,1.66373 1.10903,2.36164 l 0.74507,86.95634 -24.70708,-4.08103 v -89.76808 c 0.10881,-0.055 0.22371,-0.0949 0.33036,-0.15201 z m 45.21901,6.86242 c -0.0947,0.5885 -0.44569,1.20862 -0.39776,1.78009 0.12348,1.46605 0.81965,2.84466 1.96043,3.85855 1.14112,1.01399 2.65622,1.6748 4.40275,2.06835 4.82943,1.08719 10.69877,-0.1938 16.14834,-3.35286 -0.13012,0.63643 -0.50466,1.31283 -0.49287,1.92677 0.0565,2.94155 2.2767,5.39786 5.56765,6.37192 l 0.74496,82.54153 -40.91162,-6.7563 -0.70005,-85.09026 c 4.29602,0.2716 9.14184,-0.85371 13.67817,-3.34779 z m 123.21651,9.12298 -1.08104,60.27017 -64.5825,-10.79179 0.72253,-41.10893 c 1.17461,-0.36205 2.36125,-0.81152 3.54564,-1.3553 1.42772,-0.65553 2.82084,-1.63609 4.22331,-2.54371 -0.19519,0.74642 -0.62671,1.54512 -0.67211,2.25547 -0.10881,1.70536 0.25748,3.34278 1.24344,4.68285 0.98594,1.34 2.57098,2.29117 4.45301,2.72574 3.85046,0.88801 8.30997,-0.22398 12.76527,-2.46782 1.44129,-0.72602 2.85105,-1.77488 4.26817,-2.74603 -0.21153,0.77574 -0.65894,1.61201 -0.72256,2.34653 -0.15366,1.77365 0.15366,3.46401 1.12021,4.86488 0.96631,1.40087 2.60365,2.39519 4.54265,2.7915 3.95714,0.80758 8.48941,-0.57157 13.03973,-3.05952 4.55029,-2.48798 9.12367,-6.20646 12.82125,-10.67547 0.0194,-0.0193 0.36438,-0.43856 0.3865,-0.46527 0.22482,-0.27132 3.10114,-3.72994 3.9265,-4.7233 z m -104.83879,40.6538 a 4.9695543,4.4867407 0 0 0 -4.96824,4.48559 4.9695543,4.4867407 0 0 0 4.96824,4.48564 4.9695543,4.4867407 0 0 0 4.96836,-4.48564 4.9695543,4.4867407 0 0 0 -4.96836,-4.48559 z"
         style="color:#000000;font-style:normal;font-variant:normal;font-weight:normal;font-stretch:normal;font-size:medium;line-height:normal;font-family:sans-serif;text-indent:0;text-align:start;text-decoration:none;text-decoration-line:none;text-decoration-style:solid;text-decoration-color:#000000;letter-spacing:normal;word-spacing:normal;text-transform:none;writing-mode:lr-tb;direction:ltr;baseline-shift:baseline;text-anchor:start;white-space:normal;clip-rule:nonzero;display:inline;overflow:visible;visibility:visible;opacity:1;isolation:auto;mix-blend-mode:normal;color-interpolation:sRGB;color-interpolation-filters:linearRGB;solid-color:#000000;solid-opacity:1;fill:#0099cc;fill-opacity:1;fill-rule:evenodd;stroke:none;stroke-width:10.68886185;stroke-linecap:butt;stroke-linejoin:miter;stroke-miterlimit:4;stroke-dasharray:none;stroke-dashoffset:0;stroke-opacity:1;color-rendering:auto;image-rendering:auto;shape-rendering:auto;text-rendering:auto;enable-background:accumulate" />
      <path
         inkscape:connector-curvature="0"
         id="path3380"
         d="m 402.94128,395.55606 h 0.005 l 94.70591,71.30467 c 3.09549,2.58801 4.2963,4.90213 4.32977,7.4238 0.0308,2.21653 -0.96243,4.91289 -3.49517,8.12165 -0.009,0.011 -0.0167,0.0222 -0.025,0.0354 -0.34566,0.43753 -0.71987,0.88267 -1.12581,1.3401 l -8.46911,9.59832 -15.81231,17.92228 -7.90891,8.96114 c -0.0104,0.0134 -0.025,0.0277 -0.0338,0.0405 l -15.41465,17.47219 -7.00158,7.92948 c -0.51404,0.47826 -1.02733,0.92591 -1.54037,1.34519 -0.001,10e-4 -0.009,0.006 -0.0104,0.0104 -0.5093,0.4159 -1.01967,0.8034 -1.52915,1.16312 -0.006,10e-4 -0.0104,0.0104 -0.0193,0.0167 -2.54564,1.7937 -5.09966,2.89685 -7.72974,3.43377 -0.76583,0.14205 -1.53475,0.25581 -2.31326,0.30844 -0.45148,0.0357 -0.91038,0.0617 -1.37237,0.0659 -0.10056,7e-4 -0.20157,-0.006 -0.30236,-0.006 -0.0104,-9e-5 -0.025,7e-5 -0.0335,0 -0.58457,-0.006 -1.17347,-0.0347 -1.77562,-0.0913 -0.0482,-10e-4 -0.0974,-0.0104 -0.14592,-0.0167 -0.57832,-0.0579 -1.16346,-0.14176 -1.75876,-0.2478 -0.10517,-0.0193 -0.20849,-0.0308 -0.31368,-0.0504 -0.53228,-0.10219 -1.07805,-0.2287 -1.62436,-0.36918 -0.11959,-0.0308 -0.23948,-0.0534 -0.35848,-0.0861 -1.88687,-0.5129 -3.85531,-1.25115 -5.92049,-2.23524 l -0.8458,-0.67763 c -1.98722,-1.18946 -3.80732,-2.59828 -5.33239,-4.19234 l -100.71108,-80.5619 c 0.0194,-0.011 0.0277,-0.0222 0.0448,-0.0355 l -6.24533,-4.99636 100.07742,-62.92518 z"
         style="color:#000000;font-style:normal;font-variant:normal;font-weight:normal;font-stretch:normal;font-size:medium;line-height:normal;font-family:sans-serif;text-indent:0;text-align:start;text-decoration:none;text-decoration-line:none;text-decoration-style:solid;text-decoration-color:#000000;letter-spacing:normal;word-spacing:normal;text-transform:none;writing-mode:lr-tb;direction:ltr;baseline-shift:baseline;text-anchor:start;white-space:normal;clip-rule:nonzero;display:inline;overflow:visible;visibility:visible;opacity:1;isolation:auto;mix-blend-mode:normal;color-interpolation:sRGB;color-interpolation-filters:linearRGB;solid-color:#000000;solid-opacity:1;fill:#00bfff;fill-opacity:1;fill-rule:evenodd;stroke:none;stroke-width:10.68886185;stroke-linecap:butt;stroke-linejoin:miter;stroke-miterlimit:4;stroke-dasharray:none;stroke-dashoffset:0;stroke-opacity:1;color-rendering:auto;image-rendering:auto;shape-rendering:auto;text-rendering:auto;enable-background:accumulate" />
      <path
         inkscape:connector-curvature="0"
         id="path4204"
         d="m 491.80388,509.6767 v 73.04433 c 0.001,-0.001 0.009,-0.001 0.0104,-0.006 v 0.0405 c -0.006,0.006 -0.0104,0.0134 -0.0193,0.0222 -0.0797,22.66946 -0.0479,45.21651 -0.0193,67.78502 l -67.15348,72.25539 c -0.0665,-51.54621 0.006,-103.42881 0.006,-155.14585 9.71661,0.17304 19.44931,-4.06425 24.9816,-11.68692 13.92867,-15.52465 28.2437,-30.79314 42.18872,-46.3076 z"
         style="color:#000000;font-style:normal;font-variant:normal;font-weight:normal;font-stretch:normal;font-size:medium;line-height:normal;font-family:sans-serif;text-indent:0;text-align:start;text-decoration:none;text-decoration-line:none;text-decoration-style:solid;text-decoration-color:#000000;letter-spacing:normal;word-spacing:normal;text-transform:none;writing-mode:lr-tb;direction:ltr;baseline-shift:baseline;text-anchor:start;white-space:normal;clip-rule:nonzero;display:inline;overflow:visible;visibility:visible;opacity:1;isolation:auto;mix-blend-mode:normal;color-interpolation:sRGB;color-interpolation-filters:linearRGB;solid-color:#000000;solid-opacity:1;fill:#00bfff;fill-opacity:1;fill-rule:evenodd;stroke:none;stroke-width:10.68886185;stroke-linecap:butt;stroke-linejoin:miter;stroke-miterlimit:4;stroke-dasharray:none;stroke-dashoffset:0;stroke-opacity:1;color-rendering:auto;image-rendering:auto;shape-rendering:auto;text-rendering:auto;enable-background:accumulate" />
      <path
         inkscape:connector-curvature="0"
         id="path4218"
         d="m 385.05033,618.94873 -1.08104,60.27018 -64.5825,-10.7918 0.72253,-41.10893 c 1.17462,-0.36206 2.36125,-0.81153 3.54564,-1.35531 1.42772,-0.65553 2.82084,-1.63609 4.22332,-2.5437 -0.19519,0.74643 -0.62671,1.54512 -0.67212,2.25546 -0.10881,1.70536 0.25749,3.34278 1.24345,4.68285 0.98593,1.34002 2.57097,2.29118 4.453,2.72574 3.85046,0.88801 8.30997,-0.22398 12.76527,-2.46781 1.44129,-0.72602 2.85105,-1.77489 4.26817,-2.74603 -0.21152,0.77573 -0.65893,1.61201 -0.72256,2.34652 -0.15365,1.77366 0.15366,3.46401 1.12022,4.86489 0.9663,1.40086 2.60364,2.3952 4.54265,2.79149 3.95714,0.80758 8.48941,-0.57155 13.03972,-3.05952 4.5503,-2.48797 9.12368,-6.20646 12.82126,-10.67547 0.0194,-0.0193 0.36438,-0.43854 0.3865,-0.46527 0.22481,-0.27131 3.10113,-3.72994 3.92649,-4.72329 z"
         style="color:#000000;font-style:normal;font-variant:normal;font-weight:normal;font-stretch:normal;font-size:medium;line-height:normal;font-family:sans-serif;text-indent:0;text-align:start;text-decoration:none;text-decoration-line:none;text-decoration-style:solid;text-decoration-color:#000000;letter-spacing:normal;word-spacing:normal;text-transform:none;writing-mode:lr-tb;direction:ltr;baseline-shift:baseline;text-anchor:start;white-space:normal;clip-rule:nonzero;display:inline;overflow:visible;visibility:visible;opacity:1;isolation:auto;mix-blend-mode:normal;color-interpolation:sRGB;color-interpolation-filters:linearRGB;solid-color:#000000;solid-opacity:1;fill:#0099cc;fill-opacity:1;fill-rule:evenodd;stroke:none;stroke-width:10.68886185;stroke-linecap:butt;stroke-linejoin:miter;stroke-miterlimit:4;stroke-dasharray:none;stroke-dashoffset:0;stroke-opacity:1;color-rendering:auto;image-rendering:auto;shape-rendering:auto;text-rendering:auto;enable-background:accumulate" />
      <path
         inkscape:connector-curvature="0"
         id="path4268"
         d="m 276.38765,444.192 -4.73694,0.18387 v 27.95121 c 1.62982,-1.2488 3.25839,-2.49929 4.88835,-3.74738 z"
         style="color:#000000;font-style:normal;font-variant:normal;font-weight:normal;font-stretch:normal;font-size:medium;line-height:normal;font-family:sans-serif;text-indent:0;text-align:start;text-decoration:none;text-decoration-line:none;text-decoration-style:solid;text-decoration-color:#000000;letter-spacing:normal;word-spacing:normal;text-transform:none;writing-mode:lr-tb;direction:ltr;baseline-shift:baseline;text-anchor:start;white-space:normal;clip-rule:nonzero;display:inline;overflow:visible;visibility:visible;opacity:1;isolation:auto;mix-blend-mode:normal;color-interpolation:sRGB;color-interpolation-filters:linearRGB;solid-color:#000000;solid-opacity:1;fill:#4000ff;fill-opacity:0.3;fill-rule:evenodd;stroke:none;stroke-width:10.68886185;stroke-linecap:butt;stroke-linejoin:miter;stroke-miterlimit:4;stroke-dasharray:none;stroke-dashoffset:0;stroke-opacity:1;color-rendering:auto;image-rendering:auto;shape-rendering:auto;text-rendering:auto;enable-background:accumulate" />
      <path
         inkscape:connector-curvature="0"
         id="path4250"
         d="m 261.85592,609.76653 c -0.0947,0.58849 -0.44569,1.2086 -0.39777,1.78008 0.12348,1.46604 0.81965,2.84465 1.96044,3.85855 1.14111,1.01398 2.65622,1.67479 4.40275,2.06836 4.82942,1.08719 10.69877,-0.1938 16.14834,-3.35286 -0.13013,0.63642 -0.50467,1.31282 -0.49287,1.92677 0.0565,2.94155 2.27669,5.39785 5.56765,6.3719 l 0.74495,82.54154 -40.91162,-6.75631 -0.70004,-85.09024 c 4.29602,0.2716 9.14183,-0.85371 13.67817,-3.34779 z"
         style="color:#000000;font-style:normal;font-variant:normal;font-weight:normal;font-stretch:normal;font-size:medium;line-height:normal;font-family:sans-serif;text-indent:0;text-align:start;text-decoration:none;text-decoration-line:none;text-decoration-style:solid;text-decoration-color:#000000;letter-spacing:normal;word-spacing:normal;text-transform:none;writing-mode:lr-tb;direction:ltr;baseline-shift:baseline;text-anchor:start;white-space:normal;clip-rule:nonzero;display:inline;overflow:visible;visibility:visible;opacity:1;isolation:auto;mix-blend-mode:normal;color-interpolation:sRGB;color-interpolation-filters:linearRGB;solid-color:#000000;solid-opacity:1;fill:#00bfff;fill-opacity:1;fill-rule:evenodd;stroke:none;stroke-width:10.68886185;stroke-linecap:butt;stroke-linejoin:miter;stroke-miterlimit:4;stroke-dasharray:none;stroke-dashoffset:0;stroke-opacity:1;color-rendering:auto;image-rendering:auto;shape-rendering:auto;text-rendering:auto;enable-background:accumulate" />
    </g>
  </g>
</svg>
