<?xml version="1.0" encoding="UTF-8" standalone="no"?>
<!-- Created with Inkscape (http://www.inkscape.org/) -->

<svg
   xmlns:dc="http://purl.org/dc/elements/1.1/"
   xmlns:cc="http://creativecommons.org/ns#"
   xmlns:rdf="http://www.w3.org/1999/02/22-rdf-syntax-ns#"
   xmlns:svg="http://www.w3.org/2000/svg"
   xmlns="http://www.w3.org/2000/svg"
   xmlns:sodipodi="http://sodipodi.sourceforge.net/DTD/sodipodi-0.dtd"
   xmlns:inkscape="http://www.inkscape.org/namespaces/inkscape"
   width="162.62329mm"
   height="242.87683mm"
   viewBox="0 0 576.22426 860.58719"
   id="svg2"
   version="1.1"
   inkscape:version="0.92.2 (5c3e80d, 2017-08-06)"
   sodipodi:docname="rest-3.svg">
  <defs
     id="defs4">
    <linearGradient
       id="b"
       y2="1.85"
       x2="57.903"
       y1="1.85"
       x1="57.903"
       gradientTransform="scale(0)"
       gradientUnits="userSpaceOnUse">
      <stop
         id="stop4879"
         offset="0%"
         stop-color="#41873F" />
      <stop
         id="stop4881"
         offset="32.88%"
         stop-color="#418B3D" />
      <stop
         id="stop4883"
         offset="63.52%"
         stop-color="#419637" />
      <stop
         id="stop4885"
         offset="93.19%"
         stop-color="#3FA92D" />
      <stop
         id="stop4887"
         offset="100%"
         stop-color="#3FAE2A" />
    </linearGradient>
    <path
       d="m 57.903,1.85 a 5.957,5.957 0 0 0 -5.894,0 L 3.352,29.933 c -1.85,1.04 -2.89,3.005 -2.89,5.085 v 56.286 c 0,2.08 1.156,4.045 2.89,5.085 l 48.657,28.085 a 5.957,5.957 0 0 0 5.894,0 l 48.658,-28.085 c 1.849,-1.04 2.89,-3.005 2.89,-5.085 V 35.019 c 0,-2.08 -1.157,-4.045 -2.89,-5.085 z"
       id="a"
       inkscape:connector-curvature="0" />
    <linearGradient
       id="d"
       y2="-4.3421721"
       x2="102.80521"
       y1="22.882973"
       x1="59.834877"
       gradientTransform="scale(1.3193853,0.75792869)"
       gradientUnits="userSpaceOnUse">
      <stop
         id="stop4891"
         offset="13.76%"
         stop-color="#41873F" />
      <stop
         id="stop4893"
         offset="40.32%"
         stop-color="#54A044" />
      <stop
         id="stop4895"
         offset="71.36%"
         stop-color="#66B848" />
      <stop
         id="stop4897"
         offset="90.81%"
         stop-color="#6CC04A" />
    </linearGradient>
    <linearGradient
       id="e"
       y2="1.3961854"
       x2="60.624519"
       y1="1.3961854"
       x1="5.4630942"
       gradientTransform="scale(1.6318162,0.6128141)"
       gradientUnits="userSpaceOnUse">
      <stop
         id="stop4900"
         offset="9.192%"
         stop-color="#6CC04A" />
      <stop
         id="stop4902"
         offset="28.64%"
         stop-color="#66B848" />
      <stop
         id="stop4904"
         offset="59.68%"
         stop-color="#54A044" />
      <stop
         id="stop4906"
         offset="86.24%"
         stop-color="#41873F" />
    </linearGradient>
    <linearGradient
       id="f"
       y2="66.989662"
       x2="120.27905"
       y1="66.989662"
       x1="-1.4223322"
       gradientTransform="scale(0.92514783,1.0809083)"
       gradientUnits="userSpaceOnUse">
      <stop
         id="stop4909"
         offset="9.192%"
         stop-color="#6CC04A" />
      <stop
         id="stop4911"
         offset="28.64%"
         stop-color="#66B848" />
      <stop
         id="stop4913"
         offset="59.68%"
         stop-color="#54A044" />
      <stop
         id="stop4915"
         offset="86.24%"
         stop-color="#41873F" />
    </linearGradient>
    <linearGradient
       id="g"
       y2="68.39164"
       x2="169.56171"
       y1="68.39164"
       x1="117.94696"
       gradientTransform="scale(0.65492335,1.5268962)"
       gradientUnits="userSpaceOnUse">
      <stop
         id="stop4918"
         offset="9.192%"
         stop-color="#6CC04A" />
      <stop
         id="stop4920"
         offset="28.64%"
         stop-color="#66B848" />
      <stop
         id="stop4922"
         offset="59.68%"
         stop-color="#54A044" />
      <stop
         id="stop4924"
         offset="86.24%"
         stop-color="#41873F" />
    </linearGradient>
    <linearGradient
       id="h"
       y2="157.8152"
       x2="81.332504"
       y1="157.8152"
       x1="5.5872092"
       gradientTransform="scale(1.3178092,0.75883522)"
       gradientUnits="userSpaceOnUse">
      <stop
         id="stop4927"
         offset="9.192%"
         stop-color="#6CC04A" />
      <stop
         id="stop4929"
         offset="28.64%"
         stop-color="#66B848" />
      <stop
         id="stop4931"
         offset="59.68%"
         stop-color="#54A044" />
      <stop
         id="stop4933"
         offset="86.24%"
         stop-color="#41873F" />
    </linearGradient>
    <linearGradient
       id="i"
       y2="213.82344"
       x2="45.65274"
       y1="61.090031"
       x1="92.367607"
       gradientTransform="scale(1.3178092,0.75883522)"
       gradientUnits="userSpaceOnUse">
      <stop
         id="stop4936"
         offset="0%"
         stop-color="#41873F" />
      <stop
         id="stop4938"
         offset="32.88%"
         stop-color="#418B3D" />
      <stop
         id="stop4940"
         offset="63.52%"
         stop-color="#419637" />
      <stop
         id="stop4942"
         offset="93.19%"
         stop-color="#3FA92D" />
      <stop
         id="stop4944"
         offset="100%"
         stop-color="#3FAE2A" />
    </linearGradient>
  </defs>
  <sodipodi:namedview
     id="base"
     pagecolor="#201929"
     bordercolor="#666666"
     borderopacity="1.0"
     inkscape:pageopacity="1"
     inkscape:pageshadow="2"
     inkscape:zoom="0.39"
     inkscape:cx="-126.0651"
     inkscape:cy="303.90373"
     inkscape:document-units="px"
     inkscape:current-layer="layer1"
     showgrid="false"
     inkscape:window-width="1440"
     inkscape:window-height="744"
     inkscape:window-x="56"
     inkscape:window-y="176"
     inkscape:window-maximized="0"
     fit-margin-top="0"
     fit-margin-left="0"
     fit-margin-right="0"
     fit-margin-bottom="0" />
  <metadata
     id="metadata7">
    <rdf:RDF>
      <cc:Work
         rdf:about="">
        <dc:format>image/svg+xml</dc:format>
        <dc:type
           rdf:resource="http://purl.org/dc/dcmitype/StillImage" />
        <dc:title></dc:title>
      </cc:Work>
    </rdf:RDF>
  </metadata>
  <g
     inkscape:label="Calque 1"
     inkscape:groupmode="layer"
     id="layer1"
     transform="translate(-697.77785,-224.75916)">
    <rect
       style="fill:none;fill-opacity:1;stroke:#0099cc;stroke-width:7.24581289;stroke-linecap:round;stroke-miterlimit:4;stroke-dasharray:3.62290637, 3.62290637;stroke-dashoffset:0;stroke-opacity:1"
       id="rect3336"
       width="568.97845"
       height="756.20294"
       x="701.40076"
       y="325.52051" />
    <g
       id="g6581"
       transform="matrix(0.73189406,0,0,0.73189406,255.13602,151.74602)">
      <rect
         y="117.72555"
         x="987.62488"
         height="112.98077"
         width="19.23077"
         id="rect6575"
         style="fill:#0099cc;fill-opacity:1;stroke:#0099cc;stroke-width:7.08661413;stroke-linecap:round;stroke-miterlimit:4;stroke-dasharray:3.54330711, 3.54330711;stroke-dashoffset:0;stroke-opacity:1" />
      <rect
         y="103.30247"
         x="869.83649"
         height="28.846153"
         width="257.21155"
         id="rect6577"
         style="fill:#0099cc;fill-opacity:1;stroke:#0099cc;stroke-width:7.08661413;stroke-linecap:round;stroke-miterlimit:4;stroke-dasharray:3.54330711, 3.54330711;stroke-dashoffset:0;stroke-opacity:1" />
    </g>
    <text
       xml:space="preserve"
       style="font-style:normal;font-variant:normal;font-weight:bold;font-stretch:normal;font-size:50px;line-height:125%;font-family:sans-serif;-inkscape-font-specification:'sans-serif, Bold';font-variant-ligatures:normal;font-variant-caps:normal;font-variant-numeric:normal;font-feature-settings:normal;text-align:start;letter-spacing:0px;word-spacing:0px;writing-mode:lr-tb;text-anchor:start;fill:#0099cc;fill-opacity:1;stroke:none;stroke-width:0.9375px;stroke-linecap:butt;stroke-linejoin:miter;stroke-opacity:1"
       x="1106.4581"
       y="291.73404"
       id="text1049"><tspan
         sodipodi:role="line"
         id="tspan1047"
         x="1106.4581"
         y="291.73404"
         style="font-style:normal;font-variant:normal;font-weight:bold;font-stretch:normal;font-size:50px;font-family:sans-serif;-inkscape-font-specification:'sans-serif, Bold';font-variant-ligatures:normal;font-variant-caps:normal;font-variant-numeric:normal;font-feature-settings:normal;text-align:start;writing-mode:lr-tb;text-anchor:start;fill:#0099cc;fill-opacity:1;stroke-width:0.9375px">REST</tspan></text>
    <path
       style="fill:#539e43;stroke-width:0.56682563"
       inkscape:connector-curvature="0"
       d="m 798.71811,1010.543 c -1.38296,0 -2.67416,-0.3686 -3.87357,-1.0142 l -12.26632,-7.2859 c -1.84502,-1.0151 -0.9225,-1.3838 -0.36868,-1.5681 2.48981,-0.82989 2.95106,-1.01509 5.53344,-2.48979 0.27692,-0.1851 0.6464,-0.093 0.92252,0.092 l 9.40781,5.62599 c 0.3687,0.1843 0.82994,0.1843 1.10606,0 l 36.80054,-21.30539 c 0.36868,-0.1843 0.55382,-0.5538 0.55382,-1.01428 v -42.51838 c 0,-0.46204 -0.18514,-0.82986 -0.55382,-1.01503 l -36.80054,-21.21288 c -0.36869,-0.18517 -0.82993,-0.18517 -1.10606,0 l -36.80053,21.21288 c -0.3687,0.18433 -0.55383,0.64562 -0.55383,1.01428 v 42.51838 c 0,0.36943 0.18513,0.82983 0.55383,1.01503 l 10.05341,5.8104 c 5.44168,2.7667 8.85399,-0.4613 8.85399,-3.6893 v -41.96532 c 0,-0.55298 0.46125,-1.10681 1.10685,-1.10681 h 4.70351 c 0.55382,0 1.10685,0.46129 1.10685,1.10681 v 41.96532 c 0,7.2859 -3.96614,11.529 -10.88335,11.529 -2.12113,0 -3.78101,0 -8.48531,-2.3063 l -9.68393,-5.5334 c -2.39805,-1.383 -3.87358,-3.9662 -3.87358,-6.73289 v -42.51838 c 0,-2.76671 1.47553,-5.34984 3.87358,-6.73287 l 36.79974,-21.30542 c 2.30627,-1.29123 5.44248,-1.29123 7.74794,0 l 36.79974,21.30542 c 2.39806,1.38303 3.87438,3.96616 3.87438,6.73287 v 42.51838 c 0,2.76669 -1.47632,5.34989 -3.87438,6.73289 l -36.79974,21.30539 c -1.19942,0.5538 -2.58238,0.8299 -3.87357,0.8299 z m 11.34461,-29.23684 c -16.13988,0 -19.46043,-7.37849 -19.46043,-13.65006 0,-0.55383 0.46124,-1.10691 1.10684,-1.10691 h 4.79608 c 0.55303,0 1.01428,0.36875 1.01428,0.92248 0.73817,4.8879 2.8593,7.28595 12.6358,7.28595 7.74714,0 11.06849,-1.75243 11.06849,-5.90292 0,-2.39805 -0.92331,-4.14974 -13.00528,-5.34909 -10.05342,-1.01512 -16.32503,-3.228 -16.32503,-11.2521 0,-7.47103 6.27242,-11.89838 16.78629,-11.89838 11.80505,0 17.61621,4.05869 18.35438,12.91191 0,0.2777 -0.0925,0.55382 -0.27692,0.83069 -0.18513,0.18433 -0.46125,0.36866 -0.73815,0.36866 h -4.79609 c -0.46125,0 -0.92251,-0.36866 -1.01428,-0.82986 -1.10685,-5.07222 -3.96614,-6.73286 -11.52894,-6.73286 -8.48531,0 -9.50039,2.95188 -9.50039,5.16476 0,2.67492 1.19942,3.50487 12.6358,4.98043 11.3446,1.47632 16.6945,3.59741 16.6945,11.52888 -0.0925,8.11664 -6.73286,12.72842 -18.44695,12.72842 z"
       id="path4948" />
    <path
       id="path4080"
       d="m 871.92008,977.5577 v -23.63953 h 29.51525 v -1.38275 H 871.92008 V 930.9695 h 31.38136 v -1.38238 h -32.7637 v 49.35295 h 33.03998 V 977.5577 H 871.9205 Z m 58.27008,-34.14637 -12.23439,16.1055 -11.95854,-16.10513 h -1.79721 l 12.92602,17.14231 -14.17063,18.3856 h 1.65906 l 13.34046,-17.34973 13.40972,17.34973 h 1.72789 l -14.23904,-18.38644 12.99487,-17.14231 h -1.65863 z m 7.05026,47.69428 v -22.11864 h 0.1381 c 0.82974,3.22557 2.46559,5.81767 4.90787,7.7763 2.44233,1.95817 5.55263,2.93768 9.33124,2.93768 2.44227,0 4.60828,-0.49541 6.49758,-1.48604 1.8893,-0.99072 3.46748,-2.3386 4.73491,-4.04374 1.26701,-1.70514 2.23484,-3.68648 2.90322,-5.94461 0.66796,-2.25775 1.00233,-4.63112 1.00233,-7.1191 0,-2.67305 -0.34603,-5.13859 -1.03717,-7.39624 -0.69114,-2.25812 -1.69347,-4.21676 -3.00655,-5.87535 -1.31344,-1.65905 -2.90322,-2.94973 -4.76969,-3.87072 -1.86612,-0.92183 -3.97445,-1.38274 -6.32463,-1.38274 -1.79721,0 -3.46749,0.26509 -5.0112,0.79489 -1.5437,0.53018 -2.91444,1.27862 -4.1126,2.24653 a 15.214812,15.214812 0 0 0 -3.11065,3.4214 c -0.87533,1.31339 -1.54371,2.75344 -2.00466,4.32042 h -0.1381 v -9.95432 h -1.38235 v 47.69428 z m 14.37721,-12.71862 c -4.33122,0 -7.81073,-1.48603 -10.43725,-4.4581 -2.62652,-2.97207 -3.93996,-7.2465 -3.93996,-12.82227 0,-2.3042 0.32278,-4.49306 0.96784,-6.56648 0.64512,-2.07351 1.57819,-3.894 2.79911,-5.46051 1.22141,-1.56699 2.73069,-2.81111 4.52749,-3.73257 1.79715,-0.92183 3.82504,-1.38275 6.08277,-1.38275 2.30411,0 4.32041,0.46092 6.04829,1.38275 1.72795,0.92146 3.15673,2.17727 4.28557,3.76697 1.12889,1.58979 1.98145,3.41027 2.55767,5.46051 0.5758,2.0507 0.86373,4.22788 0.86373,6.53208 0,2.07389 -0.26468,4.13619 -0.79488,6.18643 -0.52979,2.0507 -1.34787,3.89399 -2.45393,5.53024 -1.10559,1.6354 -2.52236,2.9717 -4.25073,4.00878 -1.72831,1.0368 -3.81345,1.55492 -6.25572,1.55492 z m 22.74126,0.55308 v -20.11438 c 0,-1.93536 0.27634,-3.8251 0.82973,-5.66792 0.55262,-1.84329 1.40518,-3.46786 2.55726,-4.87304 1.15208,-1.40555 2.61493,-2.51162 4.38931,-3.31811 1.77397,-0.80648 3.88229,-1.14046 6.32463,-1.00231 v -1.38237 c -2.11999,-0.0458 -3.97444,0.18423 -5.56422,0.69123 -1.59014,0.50691 -2.96089,1.19814 -4.11297,2.07389 -1.15209,0.87538 -2.07349,1.90049 -2.76464,3.07583 a 13.752822,13.752822 0 0 0 -1.52093,3.76696 h -0.13817 v -8.77852 h -1.38228 v 35.52912 h 1.38228 z m 15.82882,-17.48788 H 1019.91 c 0.093,-2.44235 -0.1493,-4.79208 -0.7256,-7.0502 -0.5758,-2.25813 -1.4977,-4.26284 -2.7647,-6.0135 -1.2673,-1.75122 -2.9032,-3.15678 -4.9078,-4.21676 -2.0046,-1.05999 -4.3893,-1.58979 -7.154,-1.58979 -1.9818,0 -3.9171,0.41493 -5.8065,1.24459 -1.88924,0.82939 -3.54834,2.03874 -4.9767,3.62844 -1.42836,1.58979 -2.58045,3.53674 -3.45583,5.84132 -0.87539,2.30374 -1.31344,4.93033 -1.31344,7.8796 0,2.6265 0.29952,5.08045 0.89857,7.36138 0.59906,2.28093 1.52046,4.26274 2.76469,5.94461 1.2446,1.68186 2.84597,2.98375 4.80411,3.90511 1.95822,0.92184 4.3201,1.35957 7.0851,1.31349 4.0549,0 7.4651,-1.14084 10.2298,-3.4214 2.7651,-2.2813 4.4009,-5.49528 4.9079,-9.64268 h -1.3823 c -0.5991,3.91708 -2.1316,6.85475 -4.5968,8.81292 -2.4655,1.95864 -5.5642,2.93767 -9.2972,2.93767 -2.5343,0 -4.67717,-0.43764 -6.4283,-1.31301 -1.75077,-0.87538 -3.17956,-2.07389 -4.28557,-3.59442 -1.10564,-1.5209 -1.92378,-3.30651 -2.45351,-5.35713 -0.5302,-2.05033 -0.81814,-4.27396 -0.86421,-6.67024 z m 28.33999,-1.38237 h -28.33957 c 0.13775,-2.48835 0.5987,-4.7232 1.38192,-6.70464 0.78372,-1.98181 1.80881,-3.67527 3.07623,-5.08045 1.26701,-1.40555 2.74187,-2.47675 4.42374,-3.21435 1.68188,-0.73722 3.49068,-1.10607 5.42608,-1.10607 2.3042,0 4.3312,0.42652 6.0828,1.27909 1.7507,0.85247 3.2139,2.01621 4.3892,3.49066 1.1749,1.47444 2.0619,3.19117 2.661,5.14934 0.5991,1.95854 0.8986,4.02084 0.8986,6.18642 z m 30.0683,-6.15165 h 1.3823 c 0,-3.96317 -1.1521,-6.84317 -3.4558,-8.64037 -2.3046,-1.79721 -5.4381,-2.69586 -9.4009,-2.69586 -2.2121,0 -4.0782,0.27677 -5.599,0.82976 -1.5205,0.55261 -2.7647,1.26703 -3.7326,2.1424 -0.9674,0.87538 -1.6587,1.8432 -2.0735,2.90318 -0.4149,1.05999 -0.6223,2.07398 -0.6223,3.04143 0,1.93536 0.3456,3.47907 1.0371,4.63113 0.6913,1.15214 1.774,2.0507 3.2484,2.69585 1.014,0.46045 2.1657,0.87538 3.4563,1.2446 1.2903,0.36837 2.7879,0.76003 4.493,1.17449 1.5205,0.36922 3.0182,0.73759 4.4931,1.10597 1.4743,0.36885 2.7762,0.86416 3.9051,1.48613 1.1292,0.62225 2.0506,1.41714 2.765,2.38506 0.7141,0.96745 1.0713,2.23485 1.0713,3.80136 0,1.5209 -0.3569,2.81121 -1.0713,3.87072 a 8.6354455,8.6354455 0 0 1 -2.7302,2.59248 c -1.106,0.66796 -2.339,1.15168 -3.6981,1.45126 -1.3595,0.29949 -2.6842,0.44923 -3.9744,0.44923 -4.1935,0 -7.4079,-0.93295 -9.6427,-2.79905 -2.235,-1.86647 -3.3522,-4.80414 -3.3522,-8.81339 h -1.3828 c 0,4.47017 1.2098,7.74182 3.6289,9.8157 2.4195,2.07352 6.0023,3.11023 10.7488,3.11023 1.5205,0 3.0526,-0.17302 4.5967,-0.51859 1.5433,-0.34557 2.9261,-0.90977 4.147,-1.69345 a 9.3726629,9.3726629 0 0 0 2.9721,-3.04096 c 0.7605,-1.2446 1.1409,-2.76512 1.1409,-4.56233 0,-1.70504 -0.3344,-3.08742 -1.0024,-4.1474 -0.6683,-1.05952 -1.5437,-1.93536 -2.6268,-2.6265 -1.0829,-0.69114 -2.3039,-1.23254 -3.6634,-1.62419 a 214.10427,214.10427 0 0 0 -4.1129,-1.14093 716.33953,716.33953 0 0 0 -5.0805,-1.31302 c -1.4512,-0.36884 -2.7991,-0.80649 -4.0433,-1.31348 -1.1981,-0.507 -2.1544,-1.23254 -2.8688,-2.17718 -0.7144,-0.94473 -1.0711,-2.29261 -1.0711,-4.04374 0,-0.32239 0.092,-0.89856 0.2762,-1.72794 0.1843,-0.82967 0.6223,-1.67065 1.3135,-2.52322 0.6912,-0.8521 1.7507,-1.61259 3.1795,-2.28093 1.4284,-0.66795 3.387,-1.00231 5.8754,-1.00231 1.7051,0 3.26,0.18461 4.6656,0.55308 1.4055,0.36875 2.6153,0.95623 3.6288,1.76272 1.014,0.80648 1.7972,1.8316 2.3502,3.07582 0.553,1.2446 0.8298,2.76513 0.8298,4.56224 z m 32.0032,0 h 1.3823 c 0,-3.96317 -1.1517,-6.84317 -3.4558,-8.64037 -2.3042,-1.79721 -5.4377,-2.69586 -9.4009,-2.69586 -2.2117,0 -4.0781,0.27677 -5.5987,0.82976 -1.5209,0.55261 -2.765,1.26703 -3.7324,2.1424 -0.9679,0.87538 -1.6591,1.8432 -2.074,2.90318 -0.4148,1.05999 -0.6219,2.07398 -0.6219,3.04143 0,1.93536 0.3456,3.47907 1.0372,4.63113 0.6908,1.15214 1.774,2.0507 3.2484,2.69585 1.014,0.46045 2.1656,0.87538 3.4559,1.2446 1.2902,0.36837 2.7878,0.76003 4.4929,1.17449 1.5209,0.36922 3.0186,0.73759 4.493,1.10597 1.4749,0.36885 2.7763,0.86416 3.9056,1.48613 1.1289,0.62225 2.0507,1.41714 2.7646,2.38506 0.7145,0.96745 1.0716,2.23485 1.0716,3.80136 0,1.5209 -0.3571,2.81121 -1.0716,3.87072 a 8.6354455,8.6354455 0 0 1 -2.7297,2.59248 c -1.1065,0.66796 -2.3391,1.15168 -3.6986,1.45126 -1.3591,0.29949 -2.6842,0.44923 -3.9744,0.44923 -4.1935,0 -7.4074,-0.93295 -9.6424,-2.79905 -2.2352,-1.86647 -3.3525,-4.80414 -3.3525,-8.81339 h -1.3823 c 0,4.47017 1.2093,7.74182 3.6288,9.8157 2.4191,2.07352 6.0019,3.11023 10.7484,3.11023 1.5209,0 3.053,-0.17302 4.5967,-0.51859 1.5433,-0.34557 2.926,-0.90977 4.1475,-1.69345 a 9.3726629,9.3726629 0 0 0 2.972,-3.04096 c 0.7605,-1.2446 1.1405,-2.76512 1.1405,-4.56233 0,-1.70504 -0.3339,-3.08742 -1.0023,-4.1474 -0.668,-1.05952 -1.5433,-1.93536 -2.6265,-2.6265 -1.0828,-0.69114 -2.3042,-1.23254 -3.6633,-1.62419 a 214.10054,214.10054 0 0 0 -4.1129,-1.14093 716.32911,716.32911 0 0 0 -5.0806,-1.31302 c -1.4515,-0.36884 -2.7995,-0.80649 -4.0436,-1.31348 -1.1982,-0.507 -2.1545,-1.23254 -2.8684,-2.17718 -0.7144,-0.94473 -1.0716,-2.29261 -1.0716,-4.04374 0,-0.32239 0.092,-0.89856 0.2767,-1.72794 0.1842,-0.82967 0.6223,-1.67065 1.313,-2.52322 0.6912,-0.8521 1.7512,-1.61259 3.1796,-2.28093 1.4287,-0.66795 3.387,-1.00231 5.8757,-1.00231 1.7051,0 3.26,0.18461 4.6656,0.55308 1.4056,0.36875 2.6149,0.95623 3.6289,1.76272 1.0139,0.80648 1.7972,1.8316 2.3501,3.07582 0.5531,1.2446 0.8298,2.76513 0.8298,4.56224 z"
       inkscape:connector-curvature="0"
       style="fill:#aaaaaa;stroke-width:0.41486642" />
  </g>
</svg>
